700 0 1 0           
30 Autodesk Translation Framework 20 ASM 229.3.0.65535 NT 24 Sun Feb 25 13:32:38 2024 
1 9.999999999999999547e-07 1.000000000000000036e-10 
body $1 -1 $-1 $2 $-1 $3 #
rgb_color-st-attrib $-1 -1 $4 $-1 $0 0.7490196078431372584 0.7490196078431372584 0.7490196078431372584 #
lump $-1 -1 $-1 $-1 $5 $0 #
transform $-1 -1 1 0 0 0 1 0 0 0 1 0 0 0 1 no_rotate no_reflect no_shear #
DXID-attrib $-1 -1 $-1 $1 $0 @10 ASM ENTITY @100 SUPPORT_RS.IPT|:|8617D2304F8DC870EF7FC4FE05779C8668B18245|:|DA4B9237BACCCDF19C0760CAB7AEC4A8359010B0 #
shell $-1 -1 $-1 $-1 $-1 $6 $-1 $2 #
face $7 -1 $-1 $8 $9 $5 $-1 $10 forward single #
DXID-attrib $-1 -1 $-1 $-1 $6 @10 ASM ENTITY @36 1c53bd61-f608-46a8-9f02-8a6242d73577 #
face $11 -1 $-1 $12 $13 $5 $-1 $14 forward single #
loop $-1 -1 $-1 $15 $16 $6 #
cone-surface $-1 -1 $-1 -42.42640687119285303 -6.573250944085049044e-15 88.92640687119282461 -0.7071067811865475727 -1.570092458683774674e-16 0.7071067811865475727 -7.071067811865475505 -2.436048514919269636e-15 -7.071067811865475505 1 I I -0.1454939904948313045 0.9893591353648532039 10 forward I I I I #
DXID-attrib $-1 -1 $-1 $-1 $8 @10 ASM ENTITY @36 0cd04bc7-1b33-4fd3-a636-722e58127769 #
face $17 -1 $-1 $18 $19 $5 $-1 $20 forward single #
loop $-1 -1 $-1 $21 $22 $8 #
cone-surface $-1 -1 $-1 -2.749293235945240313e-15 2.8473038080175989e-15 46.49999999999998579 -0.7071067811865475727 -1.570092458683774674e-16 0.7071067811865474617 -3.824238755912386487e-15 13.5 -8.266365894244648138e-16 1 I I 0 1 13.5 forward I I I I #
loop $-1 -1 $-1 $-1 $23 $6 #
coedge $-1 -1 $-1 $16 $16 $24 $25 reversed $9 $-1 #
DXID-attrib $-1 -1 $-1 $-1 $12 @10 ASM ENTITY @36 b9cfc0ad-fa9e-4d50-8985-2c35cd0d81b5 #
face $26 -1 $-1 $27 $28 $5 $-1 $29 reversed single #
loop $-1 -1 $-1 $30 $24 $12 #
plane-surface $-1 -1 $-1 -42.42640687119285303 -6.573250944085049044e-15 88.92640687119282461 -0.7071067811865475727 -1.570092458683774674e-16 0.7071067811865475727 -2.83276944882398961e-15 10 -6.123233995736776143e-16 forward_v I I I I #
loop $-1 -1 $-1 $-1 $31 $8 #
coedge $-1 -1 $-1 $22 $22 $32 $33 reversed $13 $-1 #
coedge $-1 -1 $-1 $23 $23 $-1 $34 forward $15 $-1 #
coedge $-1 -1 $-1 $24 $24 $16 $25 forward $19 $-1 #
edge $-1 -1 $-1 $35 0 $35 6.283185307179586232 $24 $36 forward @7 unknown #
DXID-attrib $-1 -1 $-1 $-1 $18 @10 ASM ENTITY @36 c4f81cf1-6d5a-46a7-b129-a16b957bb638 #
face $37 -1 $-1 $38 $39 $5 $-1 $29 reversed single #
loop $-1 -1 $-1 $-1 $40 $18 #
plane-surface $-1 -1 $-1 -23.24999999999999645 -5.162537064506975546e-15 23.24999999999999645 0.7071067811865475727 1.570092458683774674e-16 -0.7071067811865475727 2.83276944882398961e-15 -10 6.123233995736776143e-16 forward_v I I I I #
loop $-1 -1 $-1 $-1 $32 $12 #
coedge $-1 -1 $-1 $41 $41 $40 $42 reversed $21 $-1 #
coedge $-1 -1 $-1 $32 $32 $22 $33 forward $30 $-1 #
edge $43 -1 $-1 $44 0 $44 6.283185307179586232 $22 $45 forward @7 unknown #
edge $46 -1 $-1 $47 1 $47 0 $23 $-1 forward @7 unknown #
vertex $-1 -1 $-1 $25 $48 #
ellipse-curve $-1 -1 $-1 -42.42640687119285303 -6.573250944085049044e-15 88.92640687119282461 0.7071067811865475727 1.570092458683774674e-16 -0.7071067811865475727 -7.071067811865475505 -2.436048514919269636e-15 -7.071067811865475505 1 I I #
DXID-attrib $-1 -1 $-1 $-1 $27 @10 ASM ENTITY @36 8dae1dd6-6070-443a-8cef-5280d86afb9d #
face $49 -1 $-1 $50 $51 $5 $-1 $52 reversed single #
loop $-1 -1 $-1 $-1 $53 $27 #
coedge $-1 -1 $-1 $54 $54 $31 $42 forward $28 $-1 #
coedge $-1 -1 $-1 $31 $31 $53 $55 reversed $21 $-1 #
edge $-1 -1 $-1 $56 -3.141592653589793116 $57 -5.401886752661598941e-17 $40 $58 forward @7 unknown #
DXID-attrib $-1 -1 $-1 $-1 $33 @10 ASM ENTITY @36 36673c82-7b85-45de-8aa7-239dc3e6564c #
vertex $-1 -1 $-1 $33 $59 #
ellipse-curve $-1 -1 $-1 -42.42640687119285303 -6.573250944085049044e-15 88.92640687119282461 -0.7071067811865475727 -1.570092458683774674e-16 0.7071067811865475727 -3.824238755912386487e-15 13.5 -8.266365894244648138e-16 1 I I #
DXID-attrib $-1 -1 $-1 $-1 $34 @10 ASM ENTITY @36 44368660-f7a0-45a3-ae28-488feef3c41b #
vertex $-1 -1 $-1 $34 $60 #
point $-1 -1 $-1 -49.49747468305833564 -9.009299459004319468e-15 81.8553390593273491 #
DXID-attrib $-1 -1 $-1 $-1 $38 @10 ASM ENTITY @36 4a7f6983-8de1-44b8-a19f-47b003a225ee #
face $61 -1 $-1 $62 $63 $5 $-1 $64 reversed single #
loop $-1 -1 $-1 $-1 $65 $38 #
cone-surface $-1 -1 $-1 -9.339479295090038399e-15 20 -1.224646799147356215e-15 -2.220446049250312588e-16 6.123233995736769734e-17 1 -5 -2.334869823772509994e-15 -1.110223024625156146e-15 1 I I 0 1 5 forward I I I I #
coedge $-1 -1 $-1 $66 $66 $41 $55 forward $39 $-1 #
coedge $-1 -1 $-1 $40 $40 $67 $68 reversed $28 $-1 #
edge $-1 -1 $-1 $57 -5.401886752661598941e-17 $56 3.141592653589793116 $53 $58 forward @7 unknown #
vertex $-1 -1 $-1 $42 $69 #
vertex $-1 -1 $-1 $42 $70 #
ellipse-curve $-1 -1 $-1 -1.059975552936411669e-14 2.847303808017597322e-15 46.49999999999999289 0.7071067811865475727 1.570092458683774674e-16 -0.7071067811865475727 -3.824238755912386487e-15 13.5 -8.266365894244648138e-16 1 I I #
point $-1 -1 $-1 -42.42640687119285303 13.49999999999999467 88.92640687119282461 #
point $-1 -1 $-1 -90.50966799187811773 -1.724987966313472047e-14 137.0096679918780751 #
DXID-attrib $-1 -1 $-1 $-1 $50 @10 ASM ENTITY @36 a8d4c949-06ef-43cd-b6d3-59b8873f64e6 #
face $71 -1 $-1 $72 $73 $5 $-1 $74 reversed single #
loop $-1 -1 $-1 $-1 $75 $50 #
cone-surface $-1 -1 $-1 -20 -8.114832495942685339e-15 -4.440892098500625373e-15 -2.220446049250312588e-16 6.123233995736769734e-17 1 2.028708123985671335e-15 -5 3.061616997868389058e-16 1 I I 0 1 5 forward I I I I #
coedge $-1 -1 $-1 $76 $76 $77 $78 reversed $51 $-1 #
coedge $-1 -1 $-1 $53 $53 $79 $80 reversed $39 $-1 #
coedge $-1 -1 $-1 $79 $79 $54 $68 forward $81 $-1 #
edge $-1 -1 $-1 $56 -1.570796326794896558 $57 1.570796326794896558 $67 $82 forward @7 unknown #
point $-1 -1 $-1 -7.806838677034106939e-15 -13.49999999999999645 46.49999999999999289 #
point $-1 -1 $-1 -6.573531991857626011e-15 13.50000000000000355 46.49999999999998579 #
DXID-attrib $-1 -1 $-1 $-1 $62 @10 ASM ENTITY @36 5210e8c5-e0fe-47aa-9864-c1334a3162f5 #
face $83 -1 $-1 $84 $85 $5 $-1 $86 forward single #
loop $-1 -1 $-1 $-1 $87 $62 #
cone-surface $-1 -1 $-1 6.890185696795333069e-15 -20 1.224646799147355229e-15 -2.220446049250312588e-16 6.123233995736769734e-17 1 5 1.722546424198833267e-15 1.110223024625156146e-15 1 I I 0 1 5 forward I I I I #
coedge $-1 -1 $-1 $88 $88 $89 $90 reversed $63 $-1 #
coedge $-1 -1 $-1 $65 $65 $91 $92 reversed $51 $-1 #
coedge $-1 -1 $-1 $93 $94 $65 $78 forward $95 $-1 #
edge $-1 -1 $-1 $96 -2.428369011590840287 $97 -0 $77 $98 forward @7 unknown #
coedge $-1 -1 $-1 $67 $67 $66 $80 forward $81 $-1 #
edge $-1 -1 $-1 $57 -4.712388980384689674 $56 -1.570796326794896558 $79 $82 forward @7 unknown #
loop $-1 -1 $-1 $99 $79 $100 #
ellipse-curve $-1 -1 $-1 -1.032507412901395267e-14 2.847303808017597322e-15 46.49999999999999289 0.7071067811865475727 1.570092458683774674e-16 -0.7071067811865475727 -13.49999999999999822 -4.650875345336850315e-15 -13.49999999999999822 0.7071067811865475727 I I #
DXID-attrib $-1 -1 $-1 $-1 $72 @10 ASM ENTITY @36 a90766a5-ac6f-4b6c-99e5-5d8eb9cb144a #
face $101 -1 $-1 $102 $103 $5 $-1 $104 forward single #
loop $-1 -1 $-1 $105 $106 $72 #
plane-surface $-1 -1 $-1 -2.465190328815661892e-31 0 -2.465190328815661892e-31 -2.220446049250312588e-16 6.123233995736769734e-17 1 -2.83276944882398961e-15 10 -6.123233995736776143e-16 forward_v I I I I #
coedge $-1 -1 $-1 $107 $107 $108 $109 reversed $73 $-1 #
coedge $-1 -1 $-1 $75 $75 $110 $111 reversed $63 $-1 #
coedge $-1 -1 $-1 $112 $93 $75 $90 forward $95 $-1 #
edge $-1 -1 $-1 $113 -2.428369011599261107 $114 -0 $89 $115 forward @7 unknown #
coedge $-1 -1 $-1 $116 $117 $76 $92 forward $118 $-1 #
edge $119 -1 $-1 $97 0.0237522333143193598 $96 3.117840420275473701 $76 $120 forward @7 unknown #
coedge $-1 -1 $-1 $89 $77 $117 $121 forward $95 $-1 #
coedge $-1 -1 $-1 $77 $122 $116 $123 forward $95 $-1 #
loop $-1 -1 $-1 $-1 $77 $84 #
vertex $-1 -1 $-1 $78 $124 #
vertex $-1 -1 $-1 $78 $125 #
intcurve-curve $-1 -1 $-1 forward { surfintcur full nubs 3 open 12 
	-2.428369011590840287 3 -2.281211401468463684 2 -2.135228558367888496 2 -1.835967926974185538 2 -1.452299688087258733 2 
	-1.139044597537727466 2 -0.9343568056846538461 2 -0.7498462668643969264 2 -0.5438675066194342822 2 -0.3288739846744572204 2 
	-0.161545567164303322 2 -0 3 
	4.998589644839823265 19.88125000000000853 -1.074655959066066076e-16 
	4.991586817044934676 19.5864772631568087 -3.001491673296259712e-16 
	4.958577989706945743 19.29422144431949704 0.01775697612148881971 
	4.842869267587593285 18.72294292989642273 0.09075145426430045181 
	4.76135411995252511 18.44759198417030177 0.1452158887110227836 
	4.447010276593462486 17.6415600872247289 0.3641929486358325696 
	4.152400030981614698 17.16253379699858783 0.5806461505346187657 
	3.34876812529382617 16.2226467290870211 1.171071936036866212 
	2.82960832299743803 15.83620059844478689 1.551655607073729293 
	1.884803167464418561 15.34416744905511365 2.132610180527502397 
	1.420769949436664126 15.18051074487056695 2.378150606677069234 
	0.6150121243981576669 15.02739307373155242 2.621876902128408737 
	0.2882472863817758801 14.99681515727903047 2.675265660931138267 
	-0.3563697946457919374 15.00336103098991458 2.664181889959288618 
	-0.7267879745660064117 15.03135416960169124 2.610921461086426199 
	-1.68193865009116128 15.26292815214213228 2.255331239516249475 
	-2.170092175766703324 15.46430052747983908 1.969608046447868688 
	-3.093974822190879159 16.03333870977562015 1.361893855588310887 
	-3.559459593260743571 16.42793939661066815 1.016401201381734509 
	-4.27099609884899678 17.35072083843911628 0.4932889610150321125 
	-4.528309409652361062 17.8112991689630249 0.3062817884410573011 
	-4.886768879814573197 18.81873727956686437 0.05948754042848135304 
	-4.985800620772671721 19.342916667201834 -2.673497247711696207e-15 
	-4.998589644839844581 19.88125000000000853 -2.327285321648232615e-15 
	0.0008828905230141644196 
	
	cone -9.339479295090038399e-15 20 -1.224646799147356215e-15 -2.220446049250312588e-16 6.123233995736769734e-17 1 -5 -2.334869823772509994e-15 -1.110223024625156146e-15 1 I I 0 1 5 forward I I I I 
	torus -1.554312234475219354e-15 4.28626379701573906e-16 7.000000000000000888 2.220446049250312588e-16 -6.123233995736769734e-17 -1 20.50000000000000355 -7.000000000000000888 -0.6390739837149930214 -0.7691452680337108605 -9.48063657030206065e-17 forward_v F 1.570796326794895892 F 3.141592653589793116 I I 
	nullbs 
	nullbs 
	I I 
	0 
	0 
	0 
	} I I #
loop $-1 -1 $-1 $-1 $126 $100 #
face $127 -1 $-1 $128 $81 $5 $-1 $129 forward single #
DXID-attrib $-1 -1 $-1 $-1 $84 @10 ASM ENTITY @36 6141fb12-ed27-4e2f-8dc0-6582c169ed58 #
face $130 -1 $-1 $100 $131 $5 $-1 $132 reversed single #
loop $-1 -1 $-1 $95 $133 $84 #
torus-surface $-1 -1 $-1 -1.554312234475219354e-15 4.28626379701573906e-16 7.000000000000000888 2.220446049250312588e-16 -6.123233995736769734e-17 -1 20.50000000000000355 -7.000000000000000888 -0.6390739837149930214 -0.7691452680337108605 -9.48063657030206065e-17 forward_v F 1.570796326794895892 F 3.141592653589793116 I I #
loop $-1 -1 $-1 $134 $135 $72 #
coedge $-1 -1 $-1 $106 $106 $136 $137 forward $85 $-1 #
coedge $-1 -1 $-1 $87 $87 $138 $139 reversed $73 $-1 #
coedge $-1 -1 $-1 $140 $112 $87 $109 forward $95 $-1 #
edge $-1 -1 $-1 $141 -2.428369011588977333 $142 -0 $108 $143 forward @7 unknown #
coedge $-1 -1 $-1 $117 $144 $88 $111 forward $118 $-1 #
edge $145 -1 $-1 $114 0.02375223331431942225 $113 3.117840420275473701 $88 $146 forward @7 unknown #
coedge $-1 -1 $-1 $108 $89 $144 $147 forward $95 $-1 #
vertex $-1 -1 $-1 $90 $148 #
vertex $-1 -1 $-1 $90 $149 #
intcurve-curve $-1 -1 $-1 forward { surfintcur full nubs 3 open 12 
	-2.428369011599261107 3 -2.281211401476093581 2 -2.135228558374733243 2 -1.83596792697942357 2 -1.452299688090495255 2 
	-1.13904459753936238 2 -0.934356805685210734 2 -0.7498462668645202722 2 -0.5438675066194703644 2 -0.3288739846744524464 2 
	-0.1615455671643025448 2 -0 3 
	-19.88125000000000853 4.998589644839824153 -4.720599642105990696e-15 
	-19.5864772631568087 4.991586817044935565 -4.86389640240326304e-15 
	-19.29422144431949704 4.95857798970694752 0.01775697612148413249 
	-18.72294292989641917 4.842869267587593285 0.0907514542642962746 
	-18.44759198417029822 4.761354119952524222 0.1452158887110193419 
	-17.6415600872247289 4.447010276593463374 0.3641929486358289059 
	-17.16253379699858783 4.152400030981619139 0.5806461505346124374 
	-16.22264672908709571 3.348768125293891007 1.171071936036815364 
	-15.83620059844482952 2.829608322997533065 1.551655607073670007 
	-15.34416744905508878 1.884803167464388585 2.132610180527521493 
	-15.18051074487055985 1.420769949436638147 2.378150606677079892 
	-15.02739307373154176 0.6150121243981239161 2.62187690212842206 
	-14.99681515727903047 0.2882472863817622244 2.675265660931135159 
	-15.0033610309899057 -0.3563697946448851628 2.664181889959301941 
	-15.0313541696014763 -0.7267879745650994705 2.610921461086758821 
	-15.26292815214214293 -1.681938650091191256 2.255331239516234376 
	-15.46430052747986572 -2.170092175766735298 1.969608046447841376 
	-16.03333870977553488 -3.093974822190730833 1.361893855588403479 
	-16.42793939661054381 -3.559459593260646315 1.016401201381804453 
	-17.35072083843913049 -4.270996098849004774 0.4932889610150240078 
	-17.811299168963032 -4.528309409652361062 0.3062817884410542479 
	-18.81873727956687148 -4.886768879814572308 0.05948754042847882034 
	-19.34291666720183756 -4.985800620772666392 -4.371713120399941854e-15 
	-19.88125000000000853 -4.99858964483984014 -4.10844896122556969e-15 
	0.0008828905230235360464 
	
	cone -20 -8.114832495942685339e-15 -4.440892098500625373e-15 -2.220446049250312588e-16 6.123233995736769734e-17 1 2.028708123985671335e-15 -5 3.061616997868389058e-16 1 I I 0 1 5 forward I I I I 
	torus -1.554312234475219354e-15 4.28626379701573906e-16 7.000000000000000888 2.220446049250312588e-16 -6.123233995736769734e-17 -1 20.50000000000000355 -7.000000000000000888 -0.6390739837149930214 -0.7691452680337108605 -9.48063657030206065e-17 forward_v F 1.570796326794895892 F 3.141592653589793116 I I 
	nullbs 
	nullbs 
	I I 
	0 
	0 
	0 
	} I I #
coedge $-1 -1 $-1 $150 $91 $94 $123 reversed $118 $-1 #
coedge $-1 -1 $-1 $91 $110 $93 $121 reversed $118 $-1 #
loop $-1 -1 $-1 $-1 $91 $72 #
DXID-attrib $-1 -1 $-1 $-1 $92 @10 ASM ENTITY @36 ade78092-23db-43ac-8a86-0b331fd6820a #
ellipse-curve $-1 -1 $-1 -9.339479295090038399e-15 20 -1.224646799147356215e-15 -2.220446049250312588e-16 6.123233995736769734e-17 1 -5 -2.334869823772509994e-15 -1.110223024625156146e-15 1 I I #
edge $-1 -1 $-1 $97 -2.201982094220972908 $113 -1.123819471063165487 $117 $151 forward @7 tangent #
coedge $-1 -1 $-1 $94 $140 $152 $153 forward $95 $-1 #
edge $-1 -1 $-1 $154 2.510406886163716766 $96 3.588569509321524187 $116 $155 forward @7 tangent #
point $-1 -1 $-1 4.998589644839823265 19.88125000000000497 -1.074655959066061146e-16 #
point $-1 -1 $-1 -4.998589644839841917 19.88125000000000497 -2.327285321648231827e-15 #
coedge $-1 -1 $-1 $126 $126 $133 $156 reversed $99 $-1 #
DXID-attrib $-1 -1 $-1 $-1 $100 @10 ASM ENTITY @36 bd99ca0d-14bd-4d26-9caf-7c4b2c5f2969 #
face $157 -1 $-1 $158 $159 $5 $-1 $160 reversed single #
cone-surface $-1 -1 $-1 -2.465190328815661892e-31 0 -2.465190328815661892e-31 -2.220446049250312588e-16 6.123233995736769734e-17 1 -3.824238755912386487e-15 13.5 -8.266365894244648138e-16 1 I I 0 1 13.5 forward I I I I #
DXID-attrib $-1 -1 $-1 $-1 $102 @10 ASM ENTITY @36 5075811d-b53c-4948-b7f2-b3500e0b5ad2 #
loop $-1 -1 $-1 $-1 $152 $102 #
cone-surface $-1 -1 $-1 20 5.665538897647979221e-15 4.440892098500624584e-15 -2.220446049250312588e-16 6.123233995736769734e-17 1 -1.416384724411994805e-15 5 -3.061616997868388072e-16 1 I I 0 1 5 forward I I I I #
coedge $-1 -1 $-1 $133 $133 $126 $156 forward $103 $-1 #
loop $-1 -1 $-1 $161 $162 $72 #
coedge $-1 -1 $-1 $135 $135 $163 $164 forward $105 $-1 #
coedge $-1 -1 $-1 $136 $136 $106 $137 reversed $165 $-1 #
edge $-1 -1 $-1 $166 -1.570796326794896558 $166 4.712388980384689674 $106 $167 forward @7 unknown #
coedge $-1 -1 $-1 $144 $168 $107 $139 forward $118 $-1 #
edge $169 -1 $-1 $142 0.02375223331431948123 $141 3.117840420275473701 $107 $170 forward @7 unknown #
coedge $-1 -1 $-1 $122 $108 $168 $171 forward $95 $-1 #
vertex $-1 -1 $-1 $109 $172 #
vertex $-1 -1 $-1 $109 $173 #
intcurve-curve $-1 -1 $-1 forward { surfintcur full nubs 3 open 12 
	-2.428369011588977333 3 -2.281211401466758382 2 -2.135228558366349283 2 -1.835967926973015585 2 -1.452299688086521545 2 
	-1.139044597537411496 2 -0.9343568056846547343 2 -0.7498462668645021756 2 -0.5438675066194773589 2 -0.3288739846744512807 2 
	-0.1615455671643018509 2 -0 3 
	-4.998589644839825041 -19.88125000000000853 1.074655959066056215e-16 
	-4.991586817044936453 -19.58647726315681226 -1.182073441193556824e-16 
	-4.958577989706948408 -19.29422144431949349 0.01775697612148790031 
	-4.842869267587595061 -18.72294292989642628 0.0907514542642992722 
	-4.761354119952538433 -18.44759198417031598 0.1452158887110183982 
	-4.447010276593462486 -17.64156008722471469 0.3641929486358380652 
	-4.152400030981609369 -17.16253379699857007 0.5806461505346278695 
	-3.348768125293775988 -16.22264672908695715 1.171071936036908845 
	-2.829608322997364311 -15.83620059844474781 1.551655607073776366 
	-1.884803167464559337 -15.34416744905518648 2.132610180527416244 
	-1.420769949436789803 -15.18051074487058827 2.37815060667703726 
	-0.6150121243981314656 -15.02739307373154354 2.62187690212842206 
	-0.2882472863817634456 -14.99681515727903047 2.675265660931140932 
	0.3563697946460848143 -15.00336103098991813 2.664181889959285066 
	0.7267879745662980673 -15.03135416960176229 2.610921461086319617 
	1.681938650091270082 -15.26292815214215892 2.255331239516210395 
	2.170092175766817899 -15.46430052747991724 1.96960804644779075 
	3.093974822190725948 -16.03333870977553488 1.361893855588409696 
	3.559459593260644539 -16.42793939661054381 1.016401201381811559 
	4.270996098848995004 -17.35072083843911983 0.493288961015037275 
	4.528309409652358397 -17.8112991689630249 0.3062817884410612423 
	4.886768879814573197 -18.81873727956687503 0.05948754042848388573 
	4.985800620772665503 -19.34291666720184111 1.909467108703465264e-15 
	4.998589644839838364 -19.88125000000000853 2.327285321648231827e-15 
	0.0008828905230121027008 
	
	cone 6.890185696795333069e-15 -20 1.224646799147355229e-15 -2.220446049250312588e-16 6.123233995736769734e-17 1 5 1.722546424198833267e-15 1.110223024625156146e-15 1 I I 0 1 5 forward I I I I 
	torus -1.554312234475219354e-15 4.28626379701573906e-16 7.000000000000000888 2.220446049250312588e-16 -6.123233995736769734e-17 -1 20.50000000000000355 -7.000000000000000888 -0.6390739837149930214 -0.7691452680337108605 -9.48063657030206065e-17 forward_v F 1.570796326794895892 F 3.141592653589793116 I I 
	nullbs 
	nullbs 
	I I 
	0 
	0 
	0 
	} I I #
coedge $-1 -1 $-1 $110 $138 $112 $147 reversed $118 $-1 #
DXID-attrib $-1 -1 $-1 $-1 $111 @10 ASM ENTITY @36 17acb830-aa36-4403-86e3-0b7b4d66983a #
ellipse-curve $-1 -1 $-1 -20 -8.114832495942685339e-15 -4.440892098500625373e-15 -2.220446049250312588e-16 6.123233995736769734e-17 1 2.028708123985671335e-15 -5 3.061616997868389058e-16 1 I I #
edge $-1 -1 $-1 $114 -0.6311857674260763496 $141 0.4469768557317310154 $144 $174 forward @7 tangent #
point $-1 -1 $-1 -19.88125000000000497 4.998589644839825041 -4.720599642105988329e-15 #
point $-1 -1 $-1 -19.88125000000000497 -4.99858964483984014 -4.108448961225567323e-15 #
coedge $-1 -1 $-1 $168 $116 $175 $176 forward $118 $-1 #
ellipse-curve $-1 -1 $-1 -2.465190328815661892e-31 0 -2.465190328815661892e-31 -2.220446049250312588e-16 6.123233995736769734e-17 1 -13.10101666615735994 -15.76747799469107392 -1.943530496911922889e-15 1 F -2.287030422554154896 F -1.038771142729983721 #
coedge $-1 -1 $-1 $175 $175 $122 $153 reversed $131 $-1 #
edge $-1 -1 $-1 $177 -2.428369011595506333 $154 -0 $122 $178 forward @7 unknown #
vertex $-1 -1 $-1 $123 $179 #
ellipse-curve $-1 -1 $-1 -2.465190328815661892e-31 0 -2.465190328815661892e-31 -2.220446049250312588e-16 6.123233995736769734e-17 1 -13.10101666615735994 -15.76747799469107392 -1.943530496911922889e-15 1 F 2.425358557830534778 F 3.673617837654706175 #
edge $-1 -1 $-1 $180 -3.141592653589793116 $180 3.141592653589793116 $126 $181 forward @7 tangent #
DXID-attrib $-1 -1 $-1 $-1 $128 @10 ASM ENTITY @36 b72db53d-5cc3-45e5-8822-aac2dc32e25f #
face $182 -1 $-1 $183 $184 $5 $-1 $185 reversed single #
loop $-1 -1 $-1 $186 $163 $128 #
cone-surface $-1 -1 $-1 -19.99999999999998579 -1.001087843141433389e-14 -70.96477999684067584 -2.220446049250312588e-16 6.123233995736769734e-17 1 -9.348139181119166267e-16 3.300000000000000266 -2.02066721859313596e-16 1 I I -0 1 3.300000000000000266 reversed I I I I #
loop $-1 -1 $-1 $187 $188 $72 #
coedge $-1 -1 $-1 $162 $162 $189 $190 forward $134 $-1 #
coedge $-1 -1 $-1 $163 $163 $135 $164 reversed $159 $-1 #
edge $-1 -1 $-1 $191 3.141592653589793116 $191 9.424777960769379348 $135 $192 forward @7 unknown #
loop $-1 -1 $-1 $193 $136 $194 #
vertex $-1 -1 $-1 $137 $195 #
ellipse-curve $-1 -1 $-1 -5.665538897647979221e-15 20 -1.224646799147355426e-15 2.220446049250312588e-16 -6.123233995736769734e-17 -1 -9.348139181119166267e-16 3.300000000000000266 -2.02066721859313596e-16 1 I I #
coedge $-1 -1 $-1 $138 $150 $140 $171 reversed $118 $-1 #
DXID-attrib $-1 -1 $-1 $-1 $139 @10 ASM ENTITY @36 2009f6ad-b885-49ca-86a5-40330d40813e #
ellipse-curve $-1 -1 $-1 6.890185696795333069e-15 -20 1.224646799147355229e-15 -2.220446049250312588e-16 6.123233995736769734e-17 1 5 1.722546424198833267e-15 1.110223024625156146e-15 1 I I #
edge $-1 -1 $-1 $142 0.9396105593688200974 $177 2.017773182526627629 $168 $196 forward @7 tangent #
point $-1 -1 $-1 -4.99858964483982593 -19.88125000000000497 1.074655959066050052e-16 #
point $-1 -1 $-1 4.998589644839839252 -19.88125000000000497 2.327285321648230643e-15 #
ellipse-curve $-1 -1 $-1 -2.465190328815661892e-31 0 -2.465190328815661892e-31 -2.220446049250312588e-16 6.123233995736769734e-17 1 -13.10101666615735994 -15.76747799469107392 -1.943530496911922889e-15 1 F -0.7162340957592584489 F 0.5320251840649129482 #
coedge $-1 -1 $-1 $152 $152 $150 $176 reversed $131 $-1 #
edge $197 -1 $-1 $154 0.02375223331431954368 $177 3.117840420275473701 $175 $198 forward @7 unknown #
vertex $-1 -1 $-1 $176 $199 #
intcurve-curve $-1 -1 $-1 forward { surfintcur full nubs 3 open 12 
	-2.428369011595506333 3 -2.281211401472694078 2 -2.135228558371691676 2 -1.835967926977116305 2 -1.452299688089073726 2 
	-1.139044597538620085 2 -0.9343568056849433923 2 -0.7498462668644432227 2 -0.5438675066194254004 2 -0.328873984674433073 2 
	-0.1615455671642976876 2 -0 3 
	19.88125000000000853 -4.998589644839825041 4.720599642105990696e-15 
	19.58647726315681936 -4.991586817044936453 4.44553989095429142e-15 
	19.29422144431950059 -4.958577989706951072 0.01775697612149235508 
	18.72294292989641917 -4.842869267587595949 0.09075145426430482332 
	18.44759198417029822 -4.761354119952528663 0.1452158887110274188 
	17.64156008722472535 -4.44701027659346515 0.3641929486358381762 
	17.16253379699858428 -4.152400030981618251 0.580646150534625316 
	16.2226467290870211 -3.348768125293830167 1.171071936036872874 
	15.83620059844478511 -2.829608322997439362 1.551655607073732401 
	15.34416744905510299 -1.884803167464408569 2.132610180527511723 
	15.18051074487056518 -1.42076994943665591 2.37815060667707634 
	15.0273930737315542 -0.6150121243981644392 2.621876902128411402 
	14.99681515727903047 -0.2882472863817804876 2.675265660931142708 
	15.00336103098991103 0.3563697946452931142 2.664181889959301941 
	15.031354169601574 0.7267879745655079216 2.610921461086613604 
	15.26292815214214116 1.681938650091178156 2.255331239516245923 
	15.46430052747985506 2.170092175766720644 1.969608046447857141 
	16.0333387097755562 3.09397482219076414 1.361893855588387048 
	16.42793939661057578 3.559459593260669408 1.016401201381794461 
	17.35072083843912338 4.270996098848997669 0.4932889610150367199 
	17.8112991689630249 4.528309409652358397 0.3062817884410624081 
	18.8187372795668999 4.886768879814582078 0.05948754042847884116 
	19.34291666720185177 4.985800620772659286 3.607682981391727083e-15 
	19.88125000000000853 4.998589644839832147 4.10844896122556969e-15 
	0.0008828905230158087206 
	
	cone 20 5.665538897647979221e-15 4.440892098500624584e-15 -2.220446049250312588e-16 6.123233995736769734e-17 1 -1.416384724411994805e-15 5 -3.061616997868388072e-16 1 I I 0 1 5 forward I I I I 
	torus -1.554312234475219354e-15 4.28626379701573906e-16 7.000000000000000888 2.220446049250312588e-16 -6.123233995736769734e-17 -1 20.50000000000000355 -7.000000000000000888 -0.6390739837149930214 -0.7691452680337108605 -9.48063657030206065e-17 forward_v F 1.570796326794895892 F 3.141592653589793116 I I 
	nullbs 
	nullbs 
	I I 
	0 
	0 
	0 
	} I I #
point $-1 -1 $-1 19.88125000000000497 4.998589644839838364 4.108448961225567323e-15 #
vertex $-1 -1 $-1 $156 $200 #
ellipse-curve $-1 -1 $-1 -1.554312234475219551e-15 4.286263797015739553e-16 7.000000000000001776 2.220446049250312588e-16 -6.123233995736769734e-17 -1 -8.627498780152405899 -10.38346111845509689 -1.279885936990778373e-15 1 I I #
DXID-attrib $-1 -1 $-1 $-1 $158 @10 ASM ENTITY @36 fe773cee-5772-4efa-8f81-8ec6d9148ccf #
face $201 -1 $-1 $194 $202 $5 $-1 $203 reversed single #
loop $-1 -1 $-1 $204 $189 $158 #
cone-surface $-1 -1 $-1 2.142288543563822687e-14 -20.00000000000000355 -70.96477999684067584 -2.220446049250312588e-16 6.123233995736769734e-17 1 -9.348139181119166267e-16 3.300000000000000266 -2.02066721859313596e-16 1 I I -0 1 3.300000000000000266 reversed I I I I #
loop $-1 -1 $-1 $-1 $205 $128 #
loop $-1 -1 $-1 $118 $206 $72 #
coedge $-1 -1 $-1 $188 $188 $207 $208 forward $161 $-1 #
coedge $-1 -1 $-1 $189 $189 $162 $190 reversed $184 $-1 #
edge $-1 -1 $-1 $209 1.570796326794896558 $209 7.85398163397448279 $162 $210 forward @7 unknown #
vertex $-1 -1 $-1 $164 $211 #
ellipse-curve $-1 -1 $-1 -20 -5.665538897647979221e-15 -4.440892098500625373e-15 2.220446049250312588e-16 -6.123233995736769734e-17 -1 -9.348139181119166267e-16 3.300000000000000266 -2.02066721859313596e-16 1 I I #
loop $-1 -1 $-1 $-1 $212 $194 #
face $213 -1 $-1 $214 $165 $5 $-1 $215 reversed single #
point $-1 -1 $-1 -3.300000000000009148 20 -1.957393995399959295e-15 #
ellipse-curve $-1 -1 $-1 -2.465190328815661892e-31 0 -2.465190328815661892e-31 -2.220446049250312588e-16 6.123233995736769734e-17 1 -13.10101666615735994 -15.76747799469107392 -1.943530496911922889e-15 1 F 0.8545622310356381091 F 2.102821510859809617 #
DXID-attrib $-1 -1 $-1 $-1 $176 @10 ASM ENTITY @36 49caa201-4e97-4f71-bfa1-1e82bc59690b #
ellipse-curve $-1 -1 $-1 20 5.665538897647979221e-15 4.440892098500624584e-15 -2.220446049250312588e-16 6.123233995736769734e-17 1 -1.416384724411994805e-15 5 -3.061616997868388072e-16 1 I I #
point $-1 -1 $-1 19.88125000000000497 -4.998589644839826818 4.720599642105988329e-15 #
point $-1 -1 $-1 8.627498780152405899 10.38346111845509689 7.000000000000002665 #
DXID-attrib $-1 -1 $-1 $-1 $183 @10 ASM ENTITY @36 dbf7f4e1-d7f8-47b2-a02a-3182b02aee15 #
loop $-1 -1 $-1 $216 $217 $183 #
cone-surface $-1 -1 $-1 20.00000000000001776 1.32019936388162455e-15 -70.96477999684067584 -2.220446049250312588e-16 6.123233995736769734e-17 1 -9.348139181119166267e-16 3.300000000000000266 -2.02066721859313596e-16 1 I I -0 1 3.300000000000000266 reversed I I I I #
loop $-1 -1 $-1 $-1 $218 $158 #
coedge $-1 -1 $-1 $205 $205 $219 $220 reversed $186 $-1 #
coedge $-1 -1 $-1 $206 $206 $217 $221 forward $187 $-1 #
coedge $-1 -1 $-1 $207 $207 $188 $208 reversed $222 $-1 #
edge $223 -1 $-1 $224 0 $224 6.283185307179586232 $188 $225 forward @7 unknown #
vertex $-1 -1 $-1 $190 $226 #
ellipse-curve $-1 -1 $-1 5.665538897647979221e-15 -20 1.224646799147355031e-15 2.220446049250312588e-16 -6.123233995736769734e-17 -1 -9.348139181119166267e-16 3.300000000000000266 -2.02066721859313596e-16 1 I I #
point $-1 -1 $-1 -20 -3.300000000000007816 -4.238825376641311432e-15 #
coedge $-1 -1 $-1 $212 $212 $227 $228 reversed $193 $-1 #
DXID-attrib $-1 -1 $-1 $-1 $194 @10 ASM ENTITY @36 09d87e5d-2f5b-439c-a242-507a7264f3b5 #
face $229 -1 $-1 $230 $231 $5 $-1 $232 forward single #
cone-surface $-1 -1 $-1 1.009180764034227001e-14 19.99999999999999645 -70.96477999684067584 -2.220446049250312588e-16 6.123233995736769734e-17 1 -9.348139181119166267e-16 3.300000000000000266 -2.02066721859313596e-16 1 I I -0 1 3.300000000000000266 reversed I I I I #
loop $-1 -1 $-1 $-1 $233 $183 #
coedge $-1 -1 $-1 $217 $217 $206 $221 reversed $202 $-1 #
coedge $-1 -1 $-1 $218 $218 $234 $235 reversed $204 $-1 #
coedge $-1 -1 $-1 $219 $219 $205 $220 forward $236 $-1 #
edge $-1 -1 $-1 $237 -3.141592653589793116 $237 3.141592653589793116 $219 $238 forward @7 unknown #
edge $-1 -1 $-1 $239 0 $239 6.283185307179586232 $206 $240 forward @7 unknown #
loop $-1 -1 $-1 $-1 $207 $214 #
DXID-attrib $-1 -1 $-1 $-1 $208 @10 ASM ENTITY @36 d109f285-a19b-4228-a747-c619f20472e8 #
vertex $-1 -1 $-1 $208 $241 #
ellipse-curve $-1 -1 $-1 -2.465190328815661892e-31 0 -2.465190328815661892e-31 -2.220446049250312588e-16 6.123233995736769734e-17 1 -24.99999999999999645 -7.081923622059973632e-15 -5.551115123125781124e-15 1 I I #
point $-1 -1 $-1 3.300000000000006928 -20 1.957393995399958506e-15 #
coedge $-1 -1 $-1 $227 $227 $212 $228 forward $242 $-1 #
edge $-1 -1 $-1 $243 -3.141592653589793116 $243 3.141592653589793116 $227 $244 forward @7 unknown #
DXID-attrib $-1 -1 $-1 $-1 $214 @10 ASM ENTITY @36 75546454-9d45-493b-916b-3ea25b014725 #
face $245 -1 $-1 $-1 $236 $5 $-1 $246 reversed single #
loop $-1 -1 $-1 $222 $247 $214 #
cone-surface $-1 -1 $-1 -2.465190328815661892e-31 0 -2.465190328815661892e-31 2.220446049250312588e-16 -6.123233995736769734e-17 -1 -24.99999999999999645 -7.081923622059973632e-15 -5.551115123125781124e-15 1 I I 0 1 24.99999999999999645 forward I I I I #
coedge $-1 -1 $-1 $233 $233 $248 $249 reversed $216 $-1 #
coedge $-1 -1 $-1 $234 $234 $218 $235 forward $250 $-1 #
edge $-1 -1 $-1 $251 -3.141592653589793116 $251 3.141592653589793116 $234 $252 forward @7 unknown #
loop $-1 -1 $-1 $250 $219 $230 #
vertex $-1 -1 $-1 $220 $253 #
ellipse-curve $-1 -1 $-1 -19.99999999999999645 -6.032932937392185454e-15 -6.000000000000000888 -2.220446049250312588e-16 6.123233995736769734e-17 1 -9.348139181119166267e-16 3.300000000000000266 -2.02066721859313596e-16 1 I I #
vertex $-1 -1 $-1 $221 $254 #
ellipse-curve $-1 -1 $-1 20 5.665538897647979221e-15 4.440892098500624584e-15 2.220446049250312588e-16 -6.123233995736769734e-17 -1 -9.348139181119166267e-16 3.300000000000000266 -2.02066721859313596e-16 1 I I #
point $-1 -1 $-1 -24.99999999999999645 -7.081923622059973632e-15 -5.551115123125781124e-15 #
loop $-1 -1 $-1 $255 $227 $230 #
vertex $-1 -1 $-1 $228 $256 #
ellipse-curve $-1 -1 $-1 -4.33327126809779295e-15 20 -5.999999999999997335 -2.220446049250312588e-16 6.123233995736769734e-17 1 -9.348139181119166267e-16 3.300000000000000266 -2.02066721859313596e-16 1 I I #
DXID-attrib $-1 -1 $-1 $-1 $230 @10 ASM ENTITY @36 4125adf2-82ec-4ea0-9f85-359b4944d599 #
plane-surface $-1 -1 $-1 1.332267629550187454e-15 -3.673940397442062333e-16 -6.000000000000000888 -2.220446049250312588e-16 6.123233995736769734e-17 1 -2.83276944882398961e-15 10 -6.123233995736776143e-16 forward_v I I I I #
coedge $-1 -1 $-1 $247 $247 $257 $258 reversed $231 $-1 #
coedge $-1 -1 $-1 $248 $248 $233 $249 forward $259 $-1 #
edge $-1 -1 $-1 $260 -3.141592653589793116 $260 3.141592653589793116 $248 $261 forward @7 unknown #
loop $-1 -1 $-1 $259 $234 $230 #
vertex $-1 -1 $-1 $235 $262 #
ellipse-curve $-1 -1 $-1 6.997806527198167069e-15 -20 -5.999999999999995559 -2.220446049250312588e-16 6.123233995736769734e-17 1 -9.348139181119166267e-16 3.300000000000000266 -2.02066721859313596e-16 1 I I #
point $-1 -1 $-1 -19.99999999999999645 -3.30000000000000604 -6.000000000000000888 #
point $-1 -1 $-1 20 3.300000000000005596 4.238825376641311432e-15 #
loop $-1 -1 $-1 $-1 $257 $230 #
point $-1 -1 $-1 -2.99432390626724923e-15 16.69999999999999929 -5.999999999999997335 #
coedge $-1 -1 $-1 $257 $257 $247 $258 forward $255 $-1 #
edge $263 -1 $-1 $264 -6.283185307179586232 $264 -0 $247 $265 forward @7 unknown #
loop $-1 -1 $-1 $242 $248 $230 #
vertex $-1 -1 $-1 $249 $266 #
ellipse-curve $-1 -1 $-1 20 5.298144857903772988e-15 -5.999999999999992006 -2.220446049250312588e-16 6.123233995736769734e-17 1 -9.348139181119166267e-16 3.300000000000000266 -2.02066721859313596e-16 1 I I #
point $-1 -1 $-1 8.336753889028710001e-15 -23.30000000000000071 -5.999999999999995559 #
DXID-attrib $-1 -1 $-1 $-1 $258 @10 ASM ENTITY @36 d7b97d03-7e88-4d49-b6dc-6deb62738cbc #
vertex $-1 -1 $-1 $258 $267 #
ellipse-curve $-1 -1 $-1 1.332267629550187454e-15 -3.673940397442062333e-16 -6.000000000000000888 2.220446049250312588e-16 -6.123233995736769734e-17 -1 -24.99999999999999645 -7.081923622059973632e-15 -5.551115123125781124e-15 1 I I #
point $-1 -1 $-1 20 -3.299999999999995381 -5.999999999999992006 #
point $-1 -1 $-1 -24.99999999999999645 -7.449317661804180654e-15 -6.000000000000006217 #
End-of-ACIS-data 