700 0 1 0           
30 Autodesk Translation Framework 20 ASM 229.3.0.65535 NT 24 Mon Feb 26 22:06:37 2024 
1 9.999999999999999547e-07 1.000000000000000036e-10 
body $1 -1 $-1 $2 $-1 $3 #
rgb_color-st-attrib $-1 -1 $4 $-1 $0 0.7490196078431372584 0.7490196078431372584 0.7490196078431372584 #
lump $-1 -1 $-1 $-1 $5 $0 #
transform $-1 -1 1 0 0 0 1 0 0 0 1 0 0 0 1 no_rotate no_reflect no_shear #
DXID-attrib $-1 -1 $-1 $1 $0 @10 ASM ENTITY @100 SUPPORT_RS.IPT|:|8617D2304F8DC870EF7FC4FE05779C8668B18245|:|DA4B9237BACCCDF19C0760CAB7AEC4A8359010B0 #
shell $-1 -1 $-1 $-1 $-1 $6 $-1 $2 #
face $7 -1 $-1 $8 $9 $5 $-1 $10 forward single #
DXID-attrib $-1 -1 $-1 $-1 $6 @10 ASM ENTITY @36 535c8d2e-b8fe-4b46-ae9c-eeabb3126ea6 #
face $11 -1 $-1 $12 $13 $5 $-1 $14 forward single #
loop $-1 -1 $-1 $15 $16 $6 #
cone-surface $-1 -1 $-1 88.92640687119283882 42.42640687119283882 0 0.7071067811865476838 0.7071067811865474617 0 -7.071067811865474617 7.071067811865477282 0 1 I I -0.1141906726244956011 0.993458851833112111 10 forward I I I I #
DXID-attrib $-1 -1 $-1 $-1 $8 @10 ASM ENTITY @36 90f7f274-0383-4f0a-aed9-806e2032a6c4 #
face $17 -1 $-1 $18 $19 $5 $-1 $20 forward single #
loop $-1 -1 $-1 $21 $22 $8 #
cone-surface $-1 -1 $-1 46.49999999999998579 -7.575780893068709991e-15 0 0.7071067811865475727 0.7071067811865474617 0 0 0 -13.5 1 I I 0 1 13.5 forward I I I I #
loop $-1 -1 $-1 $-1 $23 $6 #
coedge $-1 -1 $-1 $16 $16 $24 $25 reversed $9 $-1 #
DXID-attrib $-1 -1 $-1 $-1 $12 @10 ASM ENTITY @36 40230c6f-50e6-4165-9f32-c0aa35b87059 #
face $26 -1 $-1 $27 $28 $5 $-1 $29 reversed single #
loop $-1 -1 $-1 $30 $24 $12 #
plane-surface $-1 -1 $-1 88.92640687119283882 42.42640687119283882 0 0.7071067811865476838 0.7071067811865474617 0 0 0 -10 forward_v I I I I #
loop $-1 -1 $-1 $-1 $31 $8 #
coedge $-1 -1 $-1 $22 $22 $32 $33 reversed $13 $-1 #
coedge $-1 -1 $-1 $23 $23 $-1 $34 forward $15 $-1 #
coedge $-1 -1 $-1 $24 $24 $16 $25 forward $19 $-1 #
edge $-1 -1 $-1 $35 0 $35 6.283185307179586232 $24 $36 forward @7 unknown #
DXID-attrib $-1 -1 $-1 $-1 $18 @10 ASM ENTITY @36 9cfcc542-dd19-4881-b5c8-5b1edfd947a2 #
face $37 -1 $-1 $38 $39 $5 $-1 $29 reversed single #
loop $-1 -1 $-1 $-1 $40 $18 #
plane-surface $-1 -1 $-1 23.25 23.24999999999999289 0 -0.7071067811865476838 -0.7071067811865474617 -0 0 0 10 forward_v I I I I #
loop $-1 -1 $-1 $-1 $32 $12 #
coedge $-1 -1 $-1 $41 $41 $40 $42 reversed $21 $-1 #
coedge $-1 -1 $-1 $32 $32 $22 $33 forward $30 $-1 #
edge $43 -1 $-1 $44 0 $44 6.283185307179586232 $22 $45 forward @7 unknown #
edge $46 -1 $-1 $47 1 $47 0 $23 $-1 forward @7 unknown #
vertex $-1 -1 $-1 $25 $48 #
ellipse-curve $-1 -1 $-1 88.92640687119283882 42.42640687119283882 0 -0.7071067811865476838 -0.7071067811865474617 -0 -7.071067811865474617 7.071067811865477282 0 1 I I #
DXID-attrib $-1 -1 $-1 $-1 $27 @10 ASM ENTITY @36 2c68e696-339f-4297-ac28-e9ed8a595bf1 #
face $49 -1 $-1 $50 $51 $5 $-1 $52 reversed single #
loop $-1 -1 $-1 $-1 $53 $27 #
coedge $-1 -1 $-1 $54 $54 $31 $42 forward $28 $-1 #
coedge $-1 -1 $-1 $31 $31 $53 $55 reversed $21 $-1 #
edge $-1 -1 $-1 $56 -3.141592653589793116 $57 -5.401886752661598941e-17 $40 $58 forward @7 unknown #
DXID-attrib $-1 -1 $-1 $-1 $33 @10 ASM ENTITY @36 f2bd29dd-07a0-47c5-ab37-02b5a2a61567 #
vertex $-1 -1 $-1 $33 $59 #
ellipse-curve $-1 -1 $-1 88.92640687119283882 42.42640687119283882 0 0.7071067811865476838 0.7071067811865474617 0 0 0 -13.5 1 I I #
DXID-attrib $-1 -1 $-1 $-1 $34 @10 ASM ENTITY @36 9f984b00-68fd-45f0-ab8a-a63952424987 #
vertex $-1 -1 $-1 $34 $60 #
point $-1 -1 $-1 81.85533905932736332 49.49747468305831433 0 #
DXID-attrib $-1 -1 $-1 $-1 $38 @10 ASM ENTITY @36 c1b39116-6b4f-449f-bc66-35e71a174b44 #
face $61 -1 $-1 $62 $63 $5 $-1 $64 reversed single #
loop $-1 -1 $-1 $-1 $65 $38 #
cone-surface $-1 -1 $-1 0 3.673940397442059178e-15 -20 1 0 0 0 5 9.184850993605147944e-16 1 I I 0 1 5 forward I I I I #
coedge $-1 -1 $-1 $66 $66 $41 $55 forward $39 $-1 #
coedge $-1 -1 $-1 $40 $40 $67 $68 reversed $28 $-1 #
edge $-1 -1 $-1 $57 -5.401886752661598941e-17 $56 3.141592653589793116 $53 $58 forward @7 unknown #
vertex $-1 -1 $-1 $42 $69 #
vertex $-1 -1 $-1 $42 $70 #
ellipse-curve $-1 -1 $-1 46.49999999999999289 2.746814003501642159e-16 0 -0.7071067811865476838 -0.7071067811865474617 -0 0 0 -13.5 1 I I #
point $-1 -1 $-1 88.92640687119283882 42.42640687119283882 -13.5 #
point $-1 -1 $-1 150.4446968344225013 103.9446968344224729 0 #
DXID-attrib $-1 -1 $-1 $-1 $50 @10 ASM ENTITY @36 9bcb2bfe-61b5-4c46-9296-ec7ac583a411 #
face $71 -1 $-1 $72 $73 $5 $-1 $74 reversed single #
loop $-1 -1 $-1 $-1 $75 $50 #
cone-surface $-1 -1 $-1 0 20 2.449293598294706513e-15 1 0 0 0 -6.123233995736766282e-16 5 1 I I 0 1 5 forward I I I I #
coedge $-1 -1 $-1 $76 $76 $77 $78 reversed $51 $-1 #
coedge $-1 -1 $-1 $53 $53 $79 $80 reversed $39 $-1 #
coedge $-1 -1 $-1 $79 $79 $54 $68 forward $81 $-1 #
edge $-1 -1 $-1 $56 -1.570796326794896558 $57 1.570796326794896558 $67 $82 forward @7 unknown #
point $-1 -1 $-1 46.49999999999999289 1.306003303932540361e-15 13.49999999999999822 #
point $-1 -1 $-1 46.49999999999998579 -7.575780893068709991e-15 -13.5 #
DXID-attrib $-1 -1 $-1 $-1 $62 @10 ASM ENTITY @36 37f54a35-07a3-4772-9d32-66b65c3a6260 #
face $83 -1 $-1 $84 $85 $5 $-1 $86 forward single #
loop $-1 -1 $-1 $-1 $87 $62 #
cone-surface $-1 -1 $-1 0 -1.224646799147353256e-15 20 1 0 0 0 -5 -3.061616997868383141e-16 1 I I 0 1 5 forward I I I I #
coedge $-1 -1 $-1 $88 $88 $89 $90 reversed $63 $-1 #
coedge $-1 -1 $-1 $65 $65 $91 $92 reversed $51 $-1 #
coedge $-1 -1 $-1 $93 $94 $65 $78 forward $95 $-1 #
edge $-1 -1 $-1 $96 -2.428369011590840287 $97 -0 $77 $98 forward @7 unknown #
coedge $-1 -1 $-1 $67 $67 $66 $80 forward $81 $-1 #
edge $-1 -1 $-1 $57 -4.712388980384689674 $56 -1.570796326794896558 $79 $82 forward @7 unknown #
loop $-1 -1 $-1 $99 $79 $100 #
ellipse-curve $-1 -1 $-1 46.49999999999999289 0 0 -0.7071067811865476838 -0.7071067811865474617 -0 -13.49999999999999645 13.5 0 0.7071067811865475727 I I #
DXID-attrib $-1 -1 $-1 $-1 $72 @10 ASM ENTITY @36 ff50ee8e-e335-4e3c-a5a2-8b2c38f15fa5 #
face $101 -1 $-1 $102 $103 $5 $-1 $104 forward single #
loop $-1 -1 $-1 $105 $106 $72 #
plane-surface $-1 -1 $-1 0 0 0 1 0 0 0 0 -10 forward_v I I I I #
coedge $-1 -1 $-1 $107 $107 $108 $109 reversed $73 $-1 #
coedge $-1 -1 $-1 $75 $75 $110 $111 reversed $63 $-1 #
coedge $-1 -1 $-1 $112 $93 $75 $90 forward $95 $-1 #
edge $-1 -1 $-1 $113 -2.428369011599261107 $114 -0 $89 $115 forward @7 unknown #
coedge $-1 -1 $-1 $116 $117 $76 $92 forward $118 $-1 #
edge $119 -1 $-1 $97 0.0237522333143193598 $96 3.117840420275473701 $76 $120 forward @7 unknown #
coedge $-1 -1 $-1 $89 $77 $117 $121 forward $95 $-1 #
coedge $-1 -1 $-1 $77 $122 $116 $123 forward $95 $-1 #
loop $-1 -1 $-1 $-1 $77 $84 #
vertex $-1 -1 $-1 $78 $124 #
vertex $-1 -1 $-1 $78 $125 #
intcurve-curve $-1 -1 $-1 forward { surfintcur full nubs 3 open 12 
	-2.428369011590840287 3 -2.281211401468463684 2 -2.135228558367888496 2 -1.835967926974185538 2 -1.452299688087258733 2 
	-1.139044597537727466 2 -0.9343568056846538461 2 -0.7498462668643969264 2 -0.5438675066194342822 2 -0.3288739846744572204 2 
	-0.161545567164303322 2 -0 3 
	0 -4.998589644839828594 -19.88125000000000853 
	-2.091782557244919238e-16 -4.991586817044940005 -19.5864772631568087 
	0.01775697612148889951 -4.958577989706951072 -19.29422144431949704 
	0.0907514542643005212 -4.842869267587597726 -18.72294292989642273 
	0.1452158887110228669 -4.761354119952530439 -18.44759198417030177 
	0.3641929486358327361 -4.447010276593467815 -17.6415600872247289 
	0.5806461505346188767 -4.152400030981620027 -17.16253379699858783 
	1.171071936036866656 -3.348768125293830611 -16.2226467290870211 
	1.551655607073729515 -2.829608322997442471 -15.83620059844478689 
	2.132610180527502841 -1.884803167464423446 -15.34416744905511365 
	2.378150606677069678 -1.420769949436668789 -15.18051074487056695 
	2.62187690212841007 -0.6150121243981625518 -15.02739307373155242 
	2.675265660931139156 -0.2882472863817807651 -14.99681515727903047 
	2.664181889959289506 0.356369794645787108 -15.00336103098991458 
	2.610921461086427087 0.7267879745660015267 -15.03135416960169124 
	2.255331239516250363 1.681938650091156617 -15.26292815214213228 
	1.969608046447870242 2.170092175766698439 -15.46430052747983908 
	1.361893855588312441 3.093974822190874718 -16.03333870977562015 
	1.016401201381736286 3.559459593260738686 -16.42793939661066815 
	0.4932889610150341664 4.270996098848991451 -17.35072083843911628 
	0.306281788441059355 4.528309409652356621 -17.8112991689630249 
	0.05948754042848358736 4.886768879814567867 -18.81873727956686437 
	-3.820150695041168515e-16 4.985800620772665503 -19.342916667201834 
	0 4.998589644839838364 -19.88125000000000853 
	0.0008828905230141644196 
	
	cone 0 3.673940397442059178e-15 -20 1 0 0 0 5 9.184850993605147944e-16 1 I I 0 1 5 forward I I I I 
	torus 7.000000000000000888 0 0 -1 -0 -0 20.50000000000000355 -7.000000000000000888 0 0.6390739837149932434 0.7691452680337107495 forward_v F 1.570796326794895892 F 3.141592653589793116 I I 
	nullbs 
	nullbs 
	I I 
	0 
	0 
	0 
	} I I #
loop $-1 -1 $-1 $-1 $126 $100 #
face $127 -1 $-1 $128 $81 $5 $-1 $129 forward single #
DXID-attrib $-1 -1 $-1 $-1 $84 @10 ASM ENTITY @36 c181523e-7fbd-4fac-a43b-5d0ee71a3a1f #
face $130 -1 $-1 $100 $131 $5 $-1 $132 reversed single #
loop $-1 -1 $-1 $95 $133 $84 #
torus-surface $-1 -1 $-1 7.000000000000000888 0 0 -1 -0 -0 20.50000000000000355 -7.000000000000000888 0 0.6390739837149932434 0.7691452680337107495 forward_v F 1.570796326794895892 F 3.141592653589793116 I I #
loop $-1 -1 $-1 $134 $135 $72 #
coedge $-1 -1 $-1 $106 $106 $136 $137 forward $85 $-1 #
coedge $-1 -1 $-1 $87 $87 $138 $139 reversed $73 $-1 #
coedge $-1 -1 $-1 $140 $112 $87 $109 forward $95 $-1 #
edge $-1 -1 $-1 $141 -2.428369011588977333 $142 -0 $108 $143 forward @7 unknown #
coedge $-1 -1 $-1 $117 $144 $88 $111 forward $118 $-1 #
edge $145 -1 $-1 $114 0.02375223331431942225 $113 3.117840420275473701 $88 $146 forward @7 unknown #
coedge $-1 -1 $-1 $108 $89 $144 $147 forward $95 $-1 #
vertex $-1 -1 $-1 $90 $148 #
vertex $-1 -1 $-1 $90 $149 #
intcurve-curve $-1 -1 $-1 forward { surfintcur full nubs 3 open 12 
	-2.428369011599261107 3 -2.281211401476093581 2 -2.135228558374733243 2 -1.83596792697942357 2 -1.452299688090495255 2 
	-1.13904459753936238 2 -0.934356805685210734 2 -0.7498462668645202722 2 -0.5438675066194703644 2 -0.3288739846744524464 2 
	-0.1615455671643025448 2 -0 3 
	0 19.88125000000000853 -4.998589644839829482 
	-2.091782557244919484e-16 19.5864772631568087 -4.991586817044940894 
	0.01775697612148872256 19.29422144431949704 -4.958577989706952849 
	0.09075145426430072937 18.72294292989641917 -4.842869267587597726 
	0.1452158887110237273 18.44759198417029822 -4.761354119952529551 
	0.3641929486358330692 17.6415600872247289 -4.447010276593468703 
	0.5806461505346165453 17.16253379699858783 -4.152400030981624468 
	1.171071936036819139 16.22264672908709571 -3.348768125293895448 
	1.551655607073674004 15.83620059844482952 -2.829608322997537506 
	2.132610180527525046 15.34416744905508878 -1.884803167464392804 
	2.378150606677083001 15.18051074487055985 -1.420769949436642143 
	2.621876902128425613 15.02739307373154176 -0.6150121243981280239 
	2.675265660931138711 14.99681515727903047 -0.2882472863817663322 
	2.66418188995930505 15.0033610309899057 0.356369794644881055 
	2.61092146108676193 15.0313541696014763 0.7267879745650952517 
	2.255331239516237929 15.26292815214214293 1.681938650091187037 
	1.969608046447844707 15.46430052747986572 2.170092175766731302 
	1.361893855588407032 16.03333870977553488 3.093974822190726393 
	1.016401201381807784 16.42793939661054381 3.55945959326064143 
	0.4932889610150276161 17.35072083843913049 4.270996098848999445 
	0.3062817884410579117 17.811299168963032 4.528309409652355733 
	0.05948754042848270612 18.81873727956687148 4.886768879814566091 
	-3.820150695041150766e-16 19.34291666720183756 4.985800620772661063 
	0 19.88125000000000853 4.998589644839833923 
	0.0008828905230235360464 
	
	cone 0 20 2.449293598294706513e-15 1 0 0 0 -6.123233995736766282e-16 5 1 I I 0 1 5 forward I I I I 
	torus 7.000000000000000888 0 0 -1 -0 -0 20.50000000000000355 -7.000000000000000888 0 0.6390739837149932434 0.7691452680337107495 forward_v F 1.570796326794895892 F 3.141592653589793116 I I 
	nullbs 
	nullbs 
	I I 
	0 
	0 
	0 
	} I I #
coedge $-1 -1 $-1 $150 $91 $94 $123 reversed $118 $-1 #
coedge $-1 -1 $-1 $91 $110 $93 $121 reversed $118 $-1 #
loop $-1 -1 $-1 $-1 $91 $72 #
DXID-attrib $-1 -1 $-1 $-1 $92 @10 ASM ENTITY @36 1c635474-5793-4945-911e-71246a8faa8a #
ellipse-curve $-1 -1 $-1 0 3.673940397442059178e-15 -20 1 0 0 0 5 9.184850993605147944e-16 1 I I #
edge $-1 -1 $-1 $97 -2.201982094220972908 $113 -1.123819471063165487 $117 $151 forward @7 tangent #
coedge $-1 -1 $-1 $94 $140 $152 $153 forward $95 $-1 #
edge $-1 -1 $-1 $154 2.510406886163716766 $96 3.588569509321524187 $116 $155 forward @7 tangent #
point $-1 -1 $-1 0 -4.998589644839828594 -19.88125000000000497 #
point $-1 -1 $-1 0 4.998589644839836588 -19.88125000000000497 #
coedge $-1 -1 $-1 $126 $126 $133 $156 reversed $99 $-1 #
DXID-attrib $-1 -1 $-1 $-1 $100 @10 ASM ENTITY @36 cc56d3d4-ca86-4f38-a0f0-e9996c5b5e29 #
face $157 -1 $-1 $158 $159 $5 $-1 $160 reversed single #
cone-surface $-1 -1 $-1 0 0 0 1 0 0 0 0 -13.5 1 I I 0 1 13.5 forward I I I I #
DXID-attrib $-1 -1 $-1 $-1 $102 @10 ASM ENTITY @36 8d301769-e15e-42bc-9717-151cdf688216 #
loop $-1 -1 $-1 $-1 $152 $102 #
cone-surface $-1 -1 $-1 0 -20 0 1 0 0 0 0 -5 1 I I 0 1 5 forward I I I I #
coedge $-1 -1 $-1 $133 $133 $126 $156 forward $103 $-1 #
loop $-1 -1 $-1 $161 $162 $72 #
coedge $-1 -1 $-1 $135 $135 $163 $164 forward $105 $-1 #
coedge $-1 -1 $-1 $136 $136 $106 $137 reversed $165 $-1 #
edge $-1 -1 $-1 $166 -1.570796326794896558 $166 4.712388980384689674 $106 $167 forward @7 unknown #
coedge $-1 -1 $-1 $144 $168 $107 $139 forward $118 $-1 #
edge $169 -1 $-1 $142 0.02375223331431948123 $141 3.117840420275473701 $107 $170 forward @7 unknown #
coedge $-1 -1 $-1 $122 $108 $168 $171 forward $95 $-1 #
vertex $-1 -1 $-1 $109 $172 #
vertex $-1 -1 $-1 $109 $173 #
intcurve-curve $-1 -1 $-1 forward { surfintcur full nubs 3 open 12 
	-2.428369011588977333 3 -2.281211401466758382 2 -2.135228558366349283 2 -1.835967926973015585 2 -1.452299688086521545 2 
	-1.139044597537411496 2 -0.9343568056846547343 2 -0.7498462668645021756 2 -0.5438675066194773589 2 -0.3288739846744512807 2 
	-0.1615455671643018509 2 -0 3 
	0 4.998589644839831259 19.88125000000000853 
	-2.091782557244889902e-16 4.99158681704494267 19.58647726315681226 
	0.01775697612148782051 4.958577989706954625 19.29422144431949349 
	0.09075145426429920281 4.84286926758760039 18.72294292989642628 
	0.1452158887110183427 4.761354119952542874 18.44759198417031598 
	0.3641929486358379542 4.447010276593467815 17.64156008722471469 
	0.5806461505346277585 4.152400030981614698 17.16253379699857007 
	1.171071936036908401 3.348768125293779985 16.22264672908695715 
	1.551655607073776144 2.829608322997368308 15.83620059844474781 
	2.132610180527416244 1.884803167464563334 15.34416744905518648 
	2.378150606677036816 1.420769949436793356 15.18051074487058827 
	2.621876902128421172 0.6150121243981351293 15.02739307373154354 
	2.6752656609311396 0.2882472863817670539 14.99681515727903047 
	2.664181889959284177 -0.3563697946460811505 15.00336103098991813 
	2.610921461086318729 -0.7267879745662944035 15.03135416960176229 
	2.255331239516209507 -1.681938650091266085 15.26292815214215892 
	1.969608046447789418 -2.170092175766813902 15.46430052747991724 
	1.36189385558840792 -3.093974822190721952 16.03333870977553488 
	1.016401201381809782 -3.559459593260640098 16.42793939661054381 
	0.4932889610150352766 -4.270996098848989675 17.35072083843911983 
	0.3062817884410591329 -4.528309409652353068 17.8112991689630249 
	0.05948754042848164447 -4.886768879814567867 18.81873727956687503 
	-3.820150695041134003e-16 -4.985800620772660174 19.34291666720184111 
	0 -4.998589644839833035 19.88125000000000853 
	0.0008828905230121027008 
	
	cone 0 -1.224646799147353256e-15 20 1 0 0 0 -5 -3.061616997868383141e-16 1 I I 0 1 5 forward I I I I 
	torus 7.000000000000000888 0 0 -1 -0 -0 20.50000000000000355 -7.000000000000000888 0 0.6390739837149932434 0.7691452680337107495 forward_v F 1.570796326794895892 F 3.141592653589793116 I I 
	nullbs 
	nullbs 
	I I 
	0 
	0 
	0 
	} I I #
coedge $-1 -1 $-1 $110 $138 $112 $147 reversed $118 $-1 #
DXID-attrib $-1 -1 $-1 $-1 $111 @10 ASM ENTITY @36 7bf1c54d-af33-4639-b3bc-e806630f8082 #
ellipse-curve $-1 -1 $-1 0 20 2.449293598294706513e-15 1 0 0 0 -6.123233995736766282e-16 5 1 I I #
edge $-1 -1 $-1 $114 -0.6311857674260763496 $141 0.4469768557317310154 $144 $174 forward @7 tangent #
point $-1 -1 $-1 0 19.88125000000000497 -4.99858964483983037 #
point $-1 -1 $-1 0 19.88125000000000497 4.998589644839834811 #
coedge $-1 -1 $-1 $168 $116 $175 $176 forward $118 $-1 #
ellipse-curve $-1 -1 $-1 0 0 0 1 0 0 0 13.10101666615736349 15.76747799469107214 1 F -2.287030422554154896 F -1.038771142729983721 #
coedge $-1 -1 $-1 $175 $175 $122 $153 reversed $131 $-1 #
edge $-1 -1 $-1 $177 -2.428369011595506333 $154 -0 $122 $178 forward @7 unknown #
vertex $-1 -1 $-1 $123 $179 #
ellipse-curve $-1 -1 $-1 0 0 0 1 0 0 0 13.10101666615736349 15.76747799469107214 1 F 2.425358557830534778 F 3.673617837654706175 #
edge $-1 -1 $-1 $180 -3.141592653589793116 $180 3.141592653589793116 $126 $181 forward @7 tangent #
DXID-attrib $-1 -1 $-1 $-1 $128 @10 ASM ENTITY @36 2a0e1c02-1bde-4d8a-bee6-00faf4bcb882 #
face $182 -1 $-1 $183 $184 $5 $-1 $185 reversed single #
loop $-1 -1 $-1 $186 $163 $128 #
cone-surface $-1 -1 $-1 -70.96477999684067584 20 0 1 0 0 0 0 -3.300000000000000266 1 I I -0 1 3.300000000000000266 reversed I I I I #
loop $-1 -1 $-1 $187 $188 $72 #
coedge $-1 -1 $-1 $162 $162 $189 $190 forward $134 $-1 #
coedge $-1 -1 $-1 $163 $163 $135 $164 reversed $159 $-1 #
edge $-1 -1 $-1 $191 3.141592653589793116 $191 9.424777960769379348 $135 $192 forward @7 unknown #
loop $-1 -1 $-1 $193 $136 $194 #
vertex $-1 -1 $-1 $137 $195 #
ellipse-curve $-1 -1 $-1 0 0 -20 -1 -0 -0 0 0 -3.300000000000000266 1 I I #
coedge $-1 -1 $-1 $138 $150 $140 $171 reversed $118 $-1 #
DXID-attrib $-1 -1 $-1 $-1 $139 @10 ASM ENTITY @36 588aefe7-6e3a-437c-8d23-1ae6e36f172d #
ellipse-curve $-1 -1 $-1 0 -1.224646799147353256e-15 20 1 0 0 0 -5 -3.061616997868383141e-16 1 I I #
edge $-1 -1 $-1 $142 0.9396105593688200974 $177 2.017773182526627629 $168 $196 forward @7 tangent #
point $-1 -1 $-1 0 4.998589644839831259 19.88125000000000497 #
point $-1 -1 $-1 0 -4.998589644839833923 19.88125000000000497 #
ellipse-curve $-1 -1 $-1 0 0 0 1 0 0 0 13.10101666615736349 15.76747799469107214 1 F -0.7162340957592584489 F 0.5320251840649129482 #
coedge $-1 -1 $-1 $152 $152 $150 $176 reversed $131 $-1 #
edge $197 -1 $-1 $154 0.02375223331431954368 $177 3.117840420275473701 $175 $198 forward @7 unknown #
vertex $-1 -1 $-1 $176 $199 #
intcurve-curve $-1 -1 $-1 forward { surfintcur full nubs 3 open 12 
	-2.428369011595506333 3 -2.281211401472694078 2 -2.135228558371691676 2 -1.835967926977116305 2 -1.452299688089073726 2 
	-1.139044597538620085 2 -0.9343568056849433923 2 -0.7498462668644432227 2 -0.5438675066194254004 2 -0.328873984674433073 2 
	-0.1615455671642976876 2 -0 3 
	0 -19.88125000000000853 4.998589644839831259 
	-2.091782557244827779e-16 -19.58647726315681936 4.99158681704494267 
	0.017756976121487765 -19.29422144431950059 4.958577989706956402 
	0.09075145426430036855 -18.72294292989641917 4.84286926758760039 
	0.1452158887110230334 -18.44759198417029822 4.761354119952533992 
	0.3641929486358340684 -17.64156008722472535 4.447010276593470479 
	0.5806461505346212082 -17.16253379699858428 4.15240003098162358 
	1.171071936036869099 -16.2226467290870211 3.348768125293834608 
	1.551655607073728627 -15.83620059844478511 2.829608322997443803 
	2.132610180527508614 -15.34416744905510299 1.884803167464412788 
	2.378150606677072787 -15.18051074487056518 1.420769949436660351 
	2.621876902128408293 -15.0273930737315542 0.6150121243981687691 
	2.675265660931139156 -14.99681515727903047 0.2882472863817848729 
	2.664181889959298388 -15.00336103098991103 -0.3563697946452887289 
	2.610921461086610496 -15.031354169601574 -0.7267879745655034807 
	2.25533123951624237 -15.26292815214214116 -1.681938650091173937 
	1.969608046447853811 -15.46430052747985506 -2.170092175766716647 
	1.361893855588383495 -16.0333387097755562 -3.093974822190759699 
	1.016401201381791131 -16.42793939661057578 -3.559459593260664079 
	0.4932889610150331117 -17.35072083843912338 -4.270996098848992339 
	0.3062817884410587443 -17.8112991689630249 -4.528309409652353068 
	0.05948754042847495538 -18.8187372795668999 -4.886768879814576749 
	-3.820150695041035395e-16 -19.34291666720185177 -4.985800620772653957 
	0 -19.88125000000000853 -4.998589644839826818 
	0.0008828905230158087206 
	
	cone 0 -20 0 1 0 0 0 0 -5 1 I I 0 1 5 forward I I I I 
	torus 7.000000000000000888 0 0 -1 -0 -0 20.50000000000000355 -7.000000000000000888 0 0.6390739837149932434 0.7691452680337107495 forward_v F 1.570796326794895892 F 3.141592653589793116 I I 
	nullbs 
	nullbs 
	I I 
	0 
	0 
	0 
	} I I #
point $-1 -1 $-1 0 -19.88125000000000497 -4.998589644839832147 #
vertex $-1 -1 $-1 $156 $200 #
ellipse-curve $-1 -1 $-1 7.000000000000001776 0 0 -1 -0 -0 0 8.627498780152409452 10.38346111845509512 1 I I #
DXID-attrib $-1 -1 $-1 $-1 $158 @10 ASM ENTITY @36 b47dd507-6ae0-46fa-a085-cce497506197 #
face $201 -1 $-1 $194 $202 $5 $-1 $203 reversed single #
loop $-1 -1 $-1 $204 $189 $158 #
cone-surface $-1 -1 $-1 -70.96477999684067584 0 20 1 0 0 0 0 -3.300000000000000266 1 I I -0 1 3.300000000000000266 reversed I I I I #
loop $-1 -1 $-1 $-1 $205 $128 #
loop $-1 -1 $-1 $118 $206 $72 #
coedge $-1 -1 $-1 $188 $188 $207 $208 forward $161 $-1 #
coedge $-1 -1 $-1 $189 $189 $162 $190 reversed $184 $-1 #
edge $-1 -1 $-1 $209 1.570796326794896558 $209 7.85398163397448279 $162 $210 forward @7 unknown #
vertex $-1 -1 $-1 $164 $211 #
ellipse-curve $-1 -1 $-1 0 20 0 -1 -0 -0 0 0 -3.300000000000000266 1 I I #
loop $-1 -1 $-1 $-1 $212 $194 #
face $213 -1 $-1 $214 $165 $5 $-1 $215 reversed single #
point $-1 -1 $-1 0 3.300000000000003375 -20 #
ellipse-curve $-1 -1 $-1 0 0 0 1 0 0 0 13.10101666615736349 15.76747799469107214 1 F 0.8545622310356381091 F 2.102821510859809617 #
DXID-attrib $-1 -1 $-1 $-1 $176 @10 ASM ENTITY @36 83ed5c77-d6f4-402b-8df5-a369e557ef7a #
ellipse-curve $-1 -1 $-1 0 -20 0 1 0 0 0 0 -5 1 I I #
point $-1 -1 $-1 0 -19.88125000000000497 4.998589644839832147 #
point $-1 -1 $-1 7.000000000000001776 -8.627498780152411229 -10.38346111845509512 #
DXID-attrib $-1 -1 $-1 $-1 $183 @10 ASM ENTITY @36 5b8f2375-97e3-4b1c-ba45-18b81a406fe3 #
loop $-1 -1 $-1 $216 $217 $183 #
cone-surface $-1 -1 $-1 -70.96477999684067584 -20 0 1 0 0 0 0 -3.300000000000000266 1 I I -0 1 3.300000000000000266 reversed I I I I #
loop $-1 -1 $-1 $-1 $218 $158 #
coedge $-1 -1 $-1 $205 $205 $219 $220 reversed $186 $-1 #
coedge $-1 -1 $-1 $206 $206 $217 $221 forward $187 $-1 #
coedge $-1 -1 $-1 $207 $207 $188 $208 reversed $222 $-1 #
edge $223 -1 $-1 $224 0 $224 6.283185307179586232 $188 $225 forward @7 unknown #
vertex $-1 -1 $-1 $190 $226 #
ellipse-curve $-1 -1 $-1 0 0 20 -1 -0 -0 0 0 -3.300000000000000266 1 I I #
point $-1 -1 $-1 0 20 3.300000000000002487 #
coedge $-1 -1 $-1 $212 $212 $227 $228 reversed $193 $-1 #
DXID-attrib $-1 -1 $-1 $-1 $194 @10 ASM ENTITY @36 58656b5d-18a8-4686-ad3d-a868fbbfd675 #
face $229 -1 $-1 $230 $231 $5 $-1 $232 forward single #
cone-surface $-1 -1 $-1 -70.96477999684067584 0 -20 1 0 0 0 0 -3.300000000000000266 1 I I -0 1 3.300000000000000266 reversed I I I I #
loop $-1 -1 $-1 $-1 $233 $183 #
coedge $-1 -1 $-1 $217 $217 $206 $221 reversed $202 $-1 #
coedge $-1 -1 $-1 $218 $218 $234 $235 reversed $204 $-1 #
coedge $-1 -1 $-1 $219 $219 $205 $220 forward $236 $-1 #
edge $-1 -1 $-1 $237 -3.141592653589793116 $237 3.141592653589793116 $219 $238 forward @7 unknown #
edge $-1 -1 $-1 $239 0 $239 6.283185307179586232 $206 $240 forward @7 unknown #
loop $-1 -1 $-1 $-1 $207 $214 #
DXID-attrib $-1 -1 $-1 $-1 $208 @10 ASM ENTITY @36 103d95bd-ca3c-4113-96ba-9d87098e724a #
vertex $-1 -1 $-1 $208 $241 #
ellipse-curve $-1 -1 $-1 0 0 0 1 0 0 0 24.99999999999999645 0 1 I I #
point $-1 -1 $-1 0 -3.300000000000001155 20 #
coedge $-1 -1 $-1 $227 $227 $212 $228 forward $242 $-1 #
edge $-1 -1 $-1 $243 -3.141592653589793116 $243 3.141592653589793116 $227 $244 forward @7 unknown #
DXID-attrib $-1 -1 $-1 $-1 $214 @10 ASM ENTITY @36 c97c4db3-120c-42bb-ad02-18d3f2c12c5b #
face $245 -1 $-1 $-1 $236 $5 $-1 $246 reversed single #
loop $-1 -1 $-1 $222 $247 $214 #
cone-surface $-1 -1 $-1 0 0 0 -1 0 0 0 24.99999999999999645 0 1 I I 0 1 24.99999999999999645 forward I I I I #
coedge $-1 -1 $-1 $233 $233 $248 $249 reversed $216 $-1 #
coedge $-1 -1 $-1 $234 $234 $218 $235 forward $250 $-1 #
edge $-1 -1 $-1 $251 -3.141592653589793116 $251 3.141592653589793116 $234 $252 forward @7 unknown #
loop $-1 -1 $-1 $250 $219 $230 #
vertex $-1 -1 $-1 $220 $253 #
ellipse-curve $-1 -1 $-1 -5.999999999999996447 20 0 1 0 0 0 0 -3.300000000000000266 1 I I #
vertex $-1 -1 $-1 $221 $254 #
ellipse-curve $-1 -1 $-1 0 -20 0 -1 -0 -0 0 0 -3.300000000000000266 1 I I #
point $-1 -1 $-1 0 24.99999999999999645 0 #
loop $-1 -1 $-1 $255 $227 $230 #
vertex $-1 -1 $-1 $228 $256 #
ellipse-curve $-1 -1 $-1 -5.999999999999996447 0 -20 1 0 0 0 0 -3.300000000000000266 1 I I #
DXID-attrib $-1 -1 $-1 $-1 $230 @10 ASM ENTITY @36 4ec3b940-9146-4a68-8ec5-a84f46d32f3a #
plane-surface $-1 -1 $-1 -6.000000000000000888 0 0 1 0 0 0 0 -10 forward_v I I I I #
coedge $-1 -1 $-1 $247 $247 $257 $258 reversed $231 $-1 #
coedge $-1 -1 $-1 $248 $248 $233 $249 forward $259 $-1 #
edge $-1 -1 $-1 $260 -3.141592653589793116 $260 3.141592653589793116 $248 $261 forward @7 unknown #
loop $-1 -1 $-1 $259 $234 $230 #
vertex $-1 -1 $-1 $235 $262 #
ellipse-curve $-1 -1 $-1 -5.999999999999996447 0 20 1 0 0 0 0 -3.300000000000000266 1 I I #
point $-1 -1 $-1 -5.999999999999996447 20 3.300000000000000266 #
point $-1 -1 $-1 0 -20 -3.300000000000000266 #
loop $-1 -1 $-1 $-1 $257 $230 #
point $-1 -1 $-1 -5.999999999999996447 -4.041334437186266003e-16 -16.69999999999999929 #
coedge $-1 -1 $-1 $257 $257 $247 $258 forward $255 $-1 #
edge $263 -1 $-1 $264 -6.283185307179586232 $264 -0 $247 $265 forward @7 unknown #
loop $-1 -1 $-1 $242 $248 $230 #
vertex $-1 -1 $-1 $249 $266 #
ellipse-curve $-1 -1 $-1 -5.999999999999996447 -20 0 1 0 0 0 0 -3.300000000000000266 1 I I #
point $-1 -1 $-1 -5.999999999999996447 -4.041334437186266003e-16 23.30000000000000071 #
DXID-attrib $-1 -1 $-1 $-1 $258 @10 ASM ENTITY @36 df965d12-25fb-4eab-a4ad-6cf182c9e741 #
vertex $-1 -1 $-1 $258 $267 #
ellipse-curve $-1 -1 $-1 -6.000000000000000888 0 0 -1 -0 -0 0 24.99999999999999645 0 1 I I #
point $-1 -1 $-1 -5.999999999999996447 -20 3.300000000000000266 #
point $-1 -1 $-1 -6.000000000000000888 24.99999999999999645 0 #
End-of-ACIS-data 