700 0 2 0           
30 Autodesk Translation Framework 20 ASM 229.3.0.65535 NT 24 Sun Mar 10 19:47:47 2024 
1 9.999999999999999547e-07 1.000000000000000036e-10 
body $2 -1 $-1 $3 $-1 $4 #
body $5 -1 $-1 $6 $-1 $7 #
rgb_color-st-attrib $-1 -1 $8 $-1 $0 0.7490196078431372584 0.7490196078431372584 0.7490196078431372584 #
lump $-1 -1 $-1 $-1 $9 $0 #
transform $-1 -1 1 0 0 0 1 0 0 0 1 0 0 0 1 no_rotate no_reflect no_shear #
rgb_color-st-attrib $-1 -1 $10 $-1 $1 0.7490196078431372584 0.7490196078431372584 0.7490196078431372584 #
lump $-1 -1 $-1 $-1 $11 $1 #
transform $-1 -1 1 0 0 0 1 0 0 0 1 0 0 0 1 no_rotate no_reflect no_shear #
DXID-attrib $-1 -1 $-1 $2 $0 @10 ASM ENTITY @100 SUPPORT_RS.IPT|:|8617D2304F8DC870EF7FC4FE05779C8668B18245|:|DA4B9237BACCCDF19C0760CAB7AEC4A8359010B0 #
shell $-1 -1 $-1 $-1 $-1 $12 $-1 $3 #
DXID-attrib $-1 -1 $-1 $5 $1 @10 ASM ENTITY @100 SUPPORT_RS.IPT|:|8617D2304F8DC870EF7FC4FE05779C8668B18245|:|A5D907C1122676441ED98F3C6B33C94E6FB0BB97 #
shell $-1 -1 $-1 $-1 $-1 $13 $-1 $6 #
face $14 -1 $-1 $15 $16 $9 $-1 $17 reversed single #
face $18 -1 $-1 $19 $20 $11 $-1 $21 reversed single #
DXID-attrib $-1 -1 $-1 $-1 $12 @10 ASM ENTITY @36 76cc00d7-c337-4327-9e3b-9adaf1786b61 #
face $22 -1 $-1 $23 $24 $9 $-1 $25 reversed single #
loop $-1 -1 $-1 $-1 $26 $12 #
plane-surface $-1 -1 $-1 18.00000000000002487 41.71930009000631401 31.81980515339463977 -2.220446049250312588e-16 0.7071067811865475727 -0.7071067811865475727 10 1.137114430566028253e-15 -2.003070486801521588e-15 forward_v I I I I #
DXID-attrib $-1 -1 $-1 $-1 $13 @10 ASM ENTITY @36 501cdd43-e50c-4d77-969e-979aa3087998 #
face $27 -1 $-1 $-1 $28 $11 $-1 $29 forward single #
loop $-1 -1 $-1 $-1 $30 $13 #
plane-surface $-1 -1 $-1 152.0000000000000284 27.22361107568207927 27.22361107568207927 1 0 0 0 0 -10 forward_v I I I I #
DXID-attrib $-1 -1 $-1 $-1 $15 @10 ASM ENTITY @36 286675be-6cd1-4f5b-a8bc-01722c4153ff #
face $31 -1 $-1 $32 $33 $9 $-1 $25 reversed single #
loop $-1 -1 $-1 $-1 $34 $15 #
plane-surface $-1 -1 $-1 23.00000000000002487 41.71930009000631401 31.81980515339463267 1 2.242989226691106395e-16 -2.242989226691106395e-16 3.172065784643304176e-15 -7.071067811865475505 7.071067811865475505 forward_v I I I I #
coedge $-1 -1 $-1 $35 $36 $37 $38 reversed $16 $-1 #
DXID-attrib $-1 -1 $-1 $-1 $19 @10 ASM ENTITY @36 c086cd94-d820-4e08-8285-fdfece0957f9 #
loop $-1 -1 $-1 $39 $40 $19 #
cone-surface $-1 -1 $-1 152.0000000000000284 27.22361107568207927 27.22361107568207927 1 0 0 0 0 7.000000000000000888 1 I I -0.2911616157826960039 0.9566738804288584808 7.000000000000000888 forward I I I I #
coedge $-1 -1 $-1 $30 $30 $40 $41 reversed $20 $-1 #
DXID-attrib $-1 -1 $-1 $-1 $23 @10 ASM ENTITY @36 04d7f4db-da19-488f-b4ca-c0a156a628a4 #
face $42 -1 $-1 $43 $44 $9 $-1 $45 reversed single #
loop $-1 -1 $-1 $-1 $46 $23 #
coedge $-1 -1 $-1 $47 $48 $49 $50 reversed $24 $-1 #
coedge $-1 -1 $-1 $51 $26 $52 $53 forward $16 $-1 #
coedge $-1 -1 $-1 $26 $51 $47 $54 reversed $16 $-1 #
coedge $-1 -1 $-1 $49 $55 $26 $38 forward $56 $-1 #
edge $-1 -1 $-1 $57 0.5 $58 1 $37 $59 forward @7 unknown #
loop $-1 -1 $-1 $-1 $60 $19 #
coedge $-1 -1 $-1 $40 $40 $30 $41 forward $28 $-1 #
edge $61 -1 $-1 $62 0 $62 6.283185307179586232 $40 $63 forward @7 unknown #
DXID-attrib $-1 -1 $-1 $-1 $32 @10 ASM ENTITY @36 dbbb286f-3f7e-47d6-8bd0-71914d85538d #
face $64 -1 $-1 $65 $66 $9 $-1 $45 reversed single #
loop $-1 -1 $-1 $-1 $67 $32 #
plane-surface $-1 -1 $-1 23.00000000000002842 31.81980515339463977 41.71930009000631401 4.440892098500627148e-16 -0.7071067811865475727 0.7071067811865475727 -10 -2.70720688924980337e-15 3.5731629454852971e-15 forward_v I I I I #
coedge $-1 -1 $-1 $68 $69 $70 $71 reversed $33 $-1 #
coedge $-1 -1 $-1 $72 $34 $36 $54 forward $24 $-1 #
coedge $-1 -1 $-1 $34 $72 $73 $74 reversed $24 $-1 #
coedge $-1 -1 $-1 $75 $37 $34 $50 forward $56 $-1 #
edge $-1 -1 $-1 $58 0.6796738189082434101 $76 2.461918834681549928 $49 $77 forward @7 unknown #
coedge $-1 -1 $-1 $36 $35 $78 $79 reversed $16 $-1 #
coedge $-1 -1 $-1 $80 $81 $35 $53 reversed $82 $-1 #
edge $83 -1 $-1 $57 1.915685424949238769 $84 2.504339638061520823 $52 $85 forward @7 unknown #
edge $86 -1 $-1 $58 1.915685424949238547 $87 2.504339638061520379 $47 $88 forward @7 unknown #
coedge $-1 -1 $-1 $37 $75 $80 $89 forward $56 $-1 #
loop $-1 -1 $-1 $90 $37 $91 #
vertex $-1 -1 $-1 $38 $92 #
vertex $-1 -1 $-1 $38 $93 #
straight-curve $-1 -1 $-1 13.00000000000002487 28.17335854398791284 18.27386360737624216 10 0 0 I I #
coedge $-1 -1 $-1 $60 $60 $-1 $94 forward $39 $-1 #
DXID-attrib $-1 -1 $-1 $-1 $41 @10 ASM ENTITY @36 d91fe1ca-c87e-4554-b65a-08acf83a7cf4 #
vertex $-1 -1 $-1 $41 $95 #
ellipse-curve $-1 -1 $-1 152.0000000000000284 27.22361107568207927 27.22361107568207927 1 0 0 0 0 7.000000000000000888 1 I I #
DXID-attrib $-1 -1 $-1 $-1 $43 @10 ASM ENTITY @36 376fbe60-edc7-4559-ab9e-c475bca409af #
face $96 -1 $-1 $97 $82 $9 $-1 $98 reversed single #
loop $-1 -1 $-1 $-1 $99 $43 #
coedge $-1 -1 $-1 $73 $100 $75 $101 reversed $44 $-1 #
coedge $-1 -1 $-1 $102 $46 $103 $104 reversed $33 $-1 #
coedge $-1 -1 $-1 $46 $102 $105 $106 forward $33 $-1 #
coedge $-1 -1 $-1 $107 $108 $46 $71 forward $109 $-1 #
edge $-1 -1 $-1 $110 -2.461918834681549928 $111 -0.6796738189082434101 $70 $77 forward @7 unknown #
coedge $-1 -1 $-1 $48 $47 $112 $113 reversed $24 $-1 #
coedge $-1 -1 $-1 $114 $67 $48 $74 forward $44 $-1 #
edge $115 -1 $-1 $76 1.915685424949238547 $116 2.504339638061520379 $48 $117 forward @7 unknown #
coedge $-1 -1 $-1 $55 $49 $67 $101 forward $56 $-1 #
vertex $-1 -1 $-1 $50 $118 #
ellipse-curve $-1 -1 $-1 23.00000000000002487 27.22361107568207927 27.22361107568207927 -1 -2.242989226691106395e-16 2.242989226691106395e-16 0 6.363961030678928488 -6.363961030678928488 1 I I #
coedge $-1 -1 $-1 $119 $112 $51 $79 forward $120 $-1 #
edge $-1 -1 $-1 $87 -1 $84 -0.5 $78 $121 forward @7 unknown #
coedge $-1 -1 $-1 $122 $52 $55 $89 reversed $82 $-1 #
coedge $-1 -1 $-1 $52 $122 $119 $123 reversed $82 $-1 #
loop $-1 -1 $-1 $-1 $80 $65 #
DXID-attrib $-1 -1 $-1 $-1 $53 @10 ASM ENTITY @36 c29feb90-f5bf-4da0-a63a-36706db6f202 #
vertex $-1 -1 $-1 $53 $124 #
straight-curve $-1 -1 $-1 18.00000000000002487 41.71930009000631401 31.81980515339464333 0 -7.071067811865475505 -7.071067811865475505 I I #
DXID-attrib $-1 -1 $-1 $-1 $54 @10 ASM ENTITY @36 e20c5aef-abca-4696-89d0-c283c764e9bc #
vertex $-1 -1 $-1 $79 $125 #
straight-curve $-1 -1 $-1 23.00000000000002487 41.71930009000631401 31.81980515339463977 0 -7.071067811865475505 -7.071067811865475505 I I #
edge $-1 -1 $-1 $126 -2.461918834681549928 $57 -0.6796738189082434101 $55 $127 forward @7 unknown #
loop $-1 -1 $-1 $128 $129 $91 #
face $130 -1 $-1 $131 $109 $9 $-1 $132 forward single #
point $-1 -1 $-1 18.00000000000002487 28.17335854398791639 18.27386360737624216 #
point $-1 -1 $-1 23.00000000000002487 28.17335854398791639 18.27386360737624216 #
edge $133 -1 $-1 $134 1 $134 0 $60 $-1 forward @7 unknown #
point $-1 -1 $-1 152.0000000000000284 27.22361107568207927 34.22361107568207927 #
DXID-attrib $-1 -1 $-1 $-1 $65 @10 ASM ENTITY @36 3943424d-4854-4d6e-9ce5-0f385dc512b0 #
face $135 -1 $-1 $136 $137 $9 $-1 $17 reversed single #
plane-surface $-1 -1 $-1 18.00000000000002842 31.81980515339463977 41.71930009000631401 -1 -2.803736533363883363e-16 2.803736533363883363e-16 -3.965082230804129825e-15 7.071067811865475505 -7.071067811865475505 forward_v I I I I #
coedge $-1 -1 $-1 $138 $103 $108 $139 reversed $66 $-1 #
coedge $-1 -1 $-1 $67 $114 $122 $140 reversed $44 $-1 #
edge $-1 -1 $-1 $76 -1.000000000000000444 $126 -0.5000000000000004441 $75 $141 forward @7 unknown #
coedge $-1 -1 $-1 $69 $68 $142 $143 reversed $33 $-1 #
coedge $-1 -1 $-1 $99 $144 $68 $104 forward $66 $-1 #
edge $145 -1 $-1 $146 0.1956603619384809367 $110 0.7843145750507626301 $68 $117 forward @7 unknown #
coedge $-1 -1 $-1 $147 $148 $69 $106 reversed $137 $-1 #
edge $149 -1 $-1 $150 0.1956603619384809367 $111 0.7843145750507626301 $69 $88 forward @7 unknown #
coedge $-1 -1 $-1 $151 $70 $148 $152 forward $109 $-1 #
coedge $-1 -1 $-1 $70 $151 $99 $139 forward $109 $-1 #
loop $-1 -1 $-1 $56 $107 $91 #
vertex $-1 -1 $-1 $71 $153 #
vertex $-1 -1 $-1 $71 $154 #
coedge $-1 -1 $-1 $78 $155 $72 $113 forward $120 $-1 #
edge $-1 -1 $-1 $116 1.02567888043252009 $87 2.115913773157273248 $112 $156 forward @7 unknown #
coedge $-1 -1 $-1 $100 $73 $155 $157 reversed $44 $-1 #
DXID-attrib $-1 -1 $-1 $-1 $74 @10 ASM ENTITY @36 edc6483d-7378-4169-b2e2-acc518a14317 #
vertex $-1 -1 $-1 $113 $158 #
straight-curve $-1 -1 $-1 23.00000000000002842 31.81980515339463977 41.71930009000631401 0 -7.071067811865475505 -7.071067811865475505 I I #
point $-1 -1 $-1 23.00000000000002842 18.27386360737624216 28.17335854398791639 #
coedge $-1 -1 $-1 $155 $78 $81 $123 forward $120 $-1 #
loop $-1 -1 $-1 $159 $78 $131 #
straight-curve $-1 -1 $-1 13.00000000000002487 24.01094468533065651 14.11144974871898938 -10 -0 -0 I I #
coedge $-1 -1 $-1 $81 $80 $100 $140 forward $82 $-1 #
edge $-1 -1 $-1 $84 -2.115913773157273248 $160 -1.02567888043252009 $119 $161 forward @7 unknown #
point $-1 -1 $-1 18.00000000000002487 24.01094468533066362 14.11144974871898938 #
point $-1 -1 $-1 23.00000000000002487 24.01094468533066362 14.11144974871898938 #
vertex $-1 -1 $-1 $101 $162 #
ellipse-curve $-1 -1 $-1 18.00000000000002842 27.22361107568207927 27.22361107568207927 1 2.803736533363883363e-16 -2.803736533363883363e-16 0 6.363961030678928488 -6.363961030678928488 1 I I #
loop $-1 -1 $-1 $-1 $163 $91 #
coedge $-1 -1 $-1 $129 $129 $164 $165 reversed $90 $-1 #
DXID-attrib $-1 -1 $-1 $-1 $91 @10 ASM ENTITY @36 404f4cd7-3e9e-47b9-afdd-5101a67bfe7c #
face $166 -1 $-1 $167 $120 $9 $-1 $168 forward single #
cone-surface $-1 -1 $-1 13.00000000000002487 27.22361107568207927 27.22361107568207927 1 0 0 0 6.363961030678928488 -6.363961030678928488 1 I I 0 -1 9.000000000000001776 forward I I I I #
DXID-attrib $-1 -1 $-1 $-1 $94 @10 ASM ENTITY @36 c93eeccf-37ff-4279-a6b3-529396cd1f15 #
vertex $-1 -1 $-1 $94 $169 #
DXID-attrib $-1 -1 $-1 $-1 $97 @10 ASM ENTITY @36 ae99271a-f745-4290-be74-96a92472a76f #
face $170 -1 $-1 $171 $172 $9 $-1 $98 reversed single #
loop $-1 -1 $-1 $-1 $148 $97 #
coedge $-1 -1 $-1 $144 $99 $173 $174 reversed $66 $-1 #
edge $-1 -1 $-1 $175 0.5000000000000004441 $110 1.000000000000000444 $108 $176 forward @7 unknown #
edge $177 -1 $-1 $126 1.915685424949238547 $160 2.504339638061520379 $100 $178 forward @7 unknown #
straight-curve $-1 -1 $-1 13.00000000000002487 18.27386360737624216 28.17335854398791994 -10 0 0 I I #
coedge $-1 -1 $-1 $179 $180 $102 $143 forward $159 $-1 #
edge $-1 -1 $-1 $150 -2.115913773157273248 $146 -1.02567888043252009 $142 $156 forward @7 unknown #
coedge $-1 -1 $-1 $103 $138 $179 $181 reversed $66 $-1 #
DXID-attrib $-1 -1 $-1 $-1 $104 @10 ASM ENTITY @36 22271aeb-2463-4025-8b6e-3d80dca56d83 #
vertex $-1 -1 $-1 $104 $182 #
coedge $-1 -1 $-1 $183 $105 $180 $184 reversed $137 $-1 #
coedge $-1 -1 $-1 $105 $183 $107 $152 reversed $137 $-1 #
DXID-attrib $-1 -1 $-1 $-1 $106 @10 ASM ENTITY @36 746fb829-5afb-403d-9040-949107342d1d #
vertex $-1 -1 $-1 $143 $185 #
coedge $-1 -1 $-1 $108 $107 $186 $187 forward $109 $-1 #
edge $-1 -1 $-1 $111 -1 $188 -0.5 $107 $189 forward @7 unknown #
point $-1 -1 $-1 23.00000000000002842 26.27386360737624216 36.17335854398791639 #
point $-1 -1 $-1 23.00000000000002487 36.17335854398791639 26.27386360737624216 #
coedge $-1 -1 $-1 $112 $119 $114 $157 forward $120 $-1 #
ellipse-curve $-1 -1 $-1 23.00000000000002487 27.22361107568207927 27.22361107568207927 1 2.242989226691106395e-16 -2.242989226691106395e-16 0 -9.545941546018392287 9.545941546018392287 1 I I #
edge $-1 -1 $-1 $160 0.5000000000000004441 $116 1.000000000000000444 $155 $190 forward @7 unknown #
point $-1 -1 $-1 23.00000000000002842 14.11144974871898938 24.01094468533066362 #
loop $-1 -1 $-1 $191 $192 $131 #
vertex $-1 -1 $-1 $157 $193 #
ellipse-curve $-1 -1 $-1 18.00000000000002842 27.22361107568207927 27.22361107568207927 -1 -2.803736533363883363e-16 2.803736533363883363e-16 0 -9.545941546018392287 9.545941546018392287 1 I I #
point $-1 -1 $-1 18.00000000000002842 18.27386360737624216 28.17335854398791639 #
coedge $-1 -1 $-1 $163 $163 $194 $195 forward $128 $-1 #
coedge $-1 -1 $-1 $164 $164 $129 $165 forward $196 $-1 #
edge $197 -1 $-1 $198 -3.141592653589793116 $198 3.141592653589793116 $129 $199 forward @7 unknown #
DXID-attrib $-1 -1 $-1 $-1 $131 @10 ASM ENTITY @36 a6fc6ee3-2690-454d-8eff-d8195b634cd3 #
face $200 -1 $-1 $201 $202 $9 $-1 $203 reversed single #
cone-surface $-1 -1 $-1 13.00000000000002487 27.22361107568207927 27.22361107568207927 1 0 0 0 -9.545941546018392287 9.545941546018392287 1 I I 0 1 13.5 forward I I I I #
point $-1 -1 $-1 175.0000000000000284 27.22361107568207927 27.22361107568207927 #
DXID-attrib $-1 -1 $-1 $-1 $136 @10 ASM ENTITY @36 5810ff76-584d-45da-a246-ac01e837e671 #
face $204 -1 $-1 $205 $206 $9 $-1 $207 reversed single #
loop $-1 -1 $-1 $-1 $186 $136 #
coedge $-1 -1 $-1 $186 $208 $138 $174 forward $172 $-1 #
edge $209 -1 $-1 $210 0.1956603619384809367 $175 0.7843145750507626301 $138 $178 forward @7 unknown #
vertex $-1 -1 $-1 $139 $211 #
straight-curve $-1 -1 $-1 13.00000000000002487 26.27386360737623505 36.17335854398790929 10 0 0 I I #
DXID-attrib $-1 -1 $-1 $-1 $140 @10 ASM ENTITY @36 17b047b3-186f-4320-86a0-b92ebb9c7561 #
straight-curve $-1 -1 $-1 18.00000000000002842 31.81980515339463977 41.71930009000631401 0 -7.071067811865475505 -7.071067811865475505 I I #
coedge $-1 -1 $-1 $192 $142 $144 $181 forward $159 $-1 #
coedge $-1 -1 $-1 $142 $192 $147 $184 forward $159 $-1 #
edge $-1 -1 $-1 $146 -1.000000000000000444 $210 -0.5000000000000004441 $179 $212 forward @7 unknown #
point $-1 -1 $-1 23.00000000000002842 30.43627746603349493 40.33577240264516917 #
coedge $-1 -1 $-1 $148 $147 $213 $214 forward $137 $-1 #
edge $-1 -1 $-1 $215 0.5 $150 1 $180 $216 forward @7 unknown #
point $-1 -1 $-1 23.00000000000002487 40.33577240264516917 30.43627746603349493 #
coedge $-1 -1 $-1 $213 $173 $151 $187 reversed $172 $-1 #
edge $-1 -1 $-1 $188 0.6796738189082434101 $175 2.461918834681549928 $151 $127 forward @7 unknown #
vertex $-1 -1 $-1 $152 $217 #
straight-curve $-1 -1 $-1 13.00000000000002487 36.17335854398790929 26.27386360737624216 -10 0 0 I I #
straight-curve $-1 -1 $-1 13.00000000000002487 14.11144974871898761 24.01094468533066362 10 0 0 I I #
loop $-1 -1 $-1 $218 $219 $131 #
coedge $-1 -1 $-1 $180 $179 $208 $220 forward $159 $-1 #
point $-1 -1 $-1 18.00000000000002842 14.11144974871898938 24.01094468533066362 #
coedge $-1 -1 $-1 $194 $194 $163 $195 reversed $221 $-1 #
edge $222 -1 $-1 $223 -3.141592653589793116 $223 3.141592653589793116 $163 $224 forward @7 unknown #
loop $-1 -1 $-1 $-1 $164 $171 #
DXID-attrib $-1 -1 $-1 $-1 $165 @10 ASM ENTITY @36 fa565d1e-c9e0-479d-8197-3c54c3a2f08c #
vertex $-1 -1 $-1 $165 $225 #
ellipse-curve $-1 -1 $-1 145.0000000000000284 27.22361107568207927 27.22361107568207927 -1 0 0 0 6.363961030678928488 -6.363961030678928488 1 I I #
DXID-attrib $-1 -1 $-1 $-1 $167 @10 ASM ENTITY @36 94aa02ae-d19a-4b80-8ddb-d48b2e003349 #
face $226 -1 $-1 $227 $228 $9 $-1 $229 reversed single #
loop $-1 -1 $-1 $221 $230 $167 #
plane-surface $-1 -1 $-1 13.00000000000002487 27.22361107568207927 27.22361107568207927 1 0 0 0 0 -10 forward_v I I I I #
DXID-attrib $-1 -1 $-1 $-1 $171 @10 ASM ENTITY @36 a91dcff7-e0e5-47c8-87f5-2ca49aa3f7b4 #
face $231 -1 $-1 $232 $233 $9 $-1 $234 forward single #
loop $-1 -1 $-1 $196 $235 $171 #
plane-surface $-1 -1 $-1 145.0000000000000284 27.22361107568207927 27.22361107568207927 1 0 0 0 0 -10 forward_v I I I I #
coedge $-1 -1 $-1 $173 $213 $192 $220 reversed $172 $-1 #
DXID-attrib $-1 -1 $-1 $-1 $174 @10 ASM ENTITY @36 406389a4-bdfc-4fb4-b41e-642a2a2eb33c #
vertex $-1 -1 $-1 $174 $236 #
point $-1 -1 $-1 18.00000000000002842 26.27386360737624216 36.17335854398791639 #
straight-curve $-1 -1 $-1 13.00000000000002487 30.43627746603348783 40.33577240264516917 -10 -0 -0 I I #
coedge $-1 -1 $-1 $208 $186 $183 $214 reversed $172 $-1 #
edge $237 -1 $-1 $215 0.195660361938481242 $188 0.7843145750507629632 $213 $85 forward @7 unknown #
vertex $-1 -1 $-1 $184 $238 #
straight-curve $-1 -1 $-1 13.00000000000002487 40.33577240264516917 30.43627746603349493 10 0 0 I I #
point $-1 -1 $-1 18.00000000000002487 36.17335854398791639 26.27386360737624216 #
loop $-1 -1 $-1 $239 $240 $131 #
coedge $-1 -1 $-1 $219 $219 $241 $242 reversed $191 $-1 #
edge $-1 -1 $-1 $210 1.02567888043252009 $215 2.115913773157273248 $192 $161 forward @7 unknown #
loop $-1 -1 $-1 $-1 $194 $167 #
DXID-attrib $-1 -1 $-1 $-1 $195 @10 ASM ENTITY @36 c5ca40fd-6339-44aa-9456-7413b36a2edd #
vertex $-1 -1 $-1 $195 $243 #
ellipse-curve $-1 -1 $-1 13.00000000000002487 27.22361107568207927 27.22361107568207927 -1 0 0 0 6.363961030678928488 -6.363961030678928488 1 I I #
point $-1 -1 $-1 145.0000000000000284 20.8596500450031499 33.58757210636100865 #
DXID-attrib $-1 -1 $-1 $-1 $201 @10 ASM ENTITY @36 5799c227-3486-4966-8ce8-0b6752e43993 #
face $244 -1 $-1 $245 $246 $9 $-1 $229 reversed single #
loop $-1 -1 $-1 $-1 $247 $201 #
plane-surface $-1 -1 $-1 13.25000000000001776 9.369164850721764637 9.369164850721757531 -0.7071067811865477948 -0.500000000000000111 -0.4999999999999997224 -5.773502691896254646 0 8.164965809277264341 forward_v I I I I #
coedge $-1 -1 $-1 $230 $230 $240 $248 reversed $202 $-1 #
DXID-attrib $-1 -1 $-1 $-1 $205 @10 ASM ENTITY @36 c4bc08d4-09fc-46c1-bb72-d00b79ebe611 #
face $249 -1 $-1 $250 $251 $9 $-1 $252 forward single #
loop $-1 -1 $-1 $253 $254 $205 #
cone-surface $-1 -1 $-1 145.0000000000000284 27.22361107568207927 27.22361107568207927 1 0 0 0 0 7.000000000000000888 1 I I 0 -1 7.000000000000000888 forward I I I I #
coedge $-1 -1 $-1 $235 $235 $255 $256 reversed $206 $-1 #
point $-1 -1 $-1 18.00000000000002842 30.43627746603349493 40.33577240264516917 #
DXID-attrib $-1 -1 $-1 $-1 $214 @10 ASM ENTITY @36 8e415b0e-dfcb-48eb-9a1f-29dff3f40ec7 #
point $-1 -1 $-1 18.00000000000002487 40.33577240264516917 30.43627746603349493 #
loop $-1 -1 $-1 $-1 $257 $131 #
coedge $-1 -1 $-1 $240 $240 $230 $248 forward $218 $-1 #
coedge $-1 -1 $-1 $241 $241 $219 $242 forward $251 $-1 #
edge $258 -1 $-1 $259 0 $259 6.283185307179586232 $219 $260 forward @7 unknown #
point $-1 -1 $-1 13.00000000000002487 20.8596500450031499 33.58757210636100865 #
DXID-attrib $-1 -1 $-1 $-1 $227 @10 ASM ENTITY @36 a043c34c-d10b-4657-977d-b8139b87b182 #
face $261 -1 $-1 $262 $263 $9 $-1 $264 reversed single #
loop $-1 -1 $-1 $-1 $265 $227 #
coedge $-1 -1 $-1 $266 $266 $267 $268 forward $228 $-1 #
edge $269 -1 $-1 $270 1.218351741701131801e-16 $270 6.283185307179586232 $240 $271 forward @7 unknown #
DXID-attrib $-1 -1 $-1 $-1 $232 @10 ASM ENTITY @36 7b4357cb-c3a5-4083-b902-07a53bc31adc #
face $272 -1 $-1 $91 $273 $9 $-1 $274 forward single #
loop $-1 -1 $-1 $275 $241 $232 #
plane-surface $-1 -1 $-1 152.0000000000000284 27.22361107568207927 27.22361107568207927 1 0 0 0 0 -10 forward_v I I I I #
loop $-1 -1 $-1 $-1 $255 $205 #
coedge $-1 -1 $-1 $254 $254 $276 $277 reversed $233 $-1 #
coedge $-1 -1 $-1 $255 $255 $235 $256 forward $253 $-1 #
edge $278 -1 $-1 $279 -3.141592653589793116 $279 3.141592653589793116 $255 $280 forward @7 unknown #
coedge $-1 -1 $-1 $281 $281 $282 $283 forward $239 $-1 #
DXID-attrib $-1 -1 $-1 $-1 $242 @10 ASM ENTITY @36 de54be8c-dd2e-469a-8851-508226110307 #
vertex $-1 -1 $-1 $242 $284 #
ellipse-curve $-1 -1 $-1 152.0000000000000284 27.22361107568207927 27.22361107568207927 1 0 0 0 0 -13.5 1 I I #
DXID-attrib $-1 -1 $-1 $-1 $245 @10 ASM ENTITY @36 f26f2d12-d925-4c96-be78-f8efe7c296f5 #
face $285 -1 $-1 $286 $287 $9 $-1 $288 reversed single #
loop $-1 -1 $-1 $-1 $289 $245 #
cone-surface $-1 -1 $-1 0 3.673940397442059178e-15 -20 1 0 0 0 5 9.184850993605147944e-16 1 I I 0 1 5 forward I I I I #
coedge $-1 -1 $-1 $290 $290 $291 $292 forward $246 $-1 #
coedge $-1 -1 $-1 $247 $247 $293 $294 reversed $228 $-1 #
coedge $-1 -1 $-1 $291 $291 $247 $268 reversed $295 $-1 #
edge $-1 -1 $-1 $296 -1.57079632679489678 $297 1.57079632679489678 $267 $298 forward @7 unknown #
DXID-attrib $-1 -1 $-1 $-1 $248 @10 ASM ENTITY @36 62363350-7a62-4b9a-9ca1-ae25c6b24038 #
vertex $-1 -1 $-1 $248 $299 #
ellipse-curve $-1 -1 $-1 13.00000000000002487 27.22361107568207927 27.22361107568207927 1 0 0 0 -9.545941546018392287 9.545941546018392287 1 I I #
DXID-attrib $-1 -1 $-1 $-1 $250 @10 ASM ENTITY @36 054a920d-b61f-416d-b80c-ad9ebd1f820d #
loop $-1 -1 $-1 $295 $282 $250 #
cone-surface $-1 -1 $-1 26.50000000000002132 -7.176949458727954637e-17 -7.176949458727948474e-17 0.7071067811865477948 0.500000000000000111 0.4999999999999997224 9.545941546018388735 -6.750000000000005329 -6.75 1 I I 0 1 13.5 forward I I I I #
loop $-1 -1 $-1 $-1 $276 $232 #
coedge $-1 -1 $-1 $276 $276 $254 $277 forward $275 $-1 #
edge $300 -1 $-1 $301 -3.141592653589793116 $301 3.141592653589793116 $254 $302 forward @7 unknown #
DXID-attrib $-1 -1 $-1 $-1 $256 @10 ASM ENTITY @36 ff9143c7-a260-43bf-bd6a-351e60f8bce4 #
vertex $-1 -1 $-1 $256 $303 #
ellipse-curve $-1 -1 $-1 145.0000000000000284 27.22361107568207927 27.22361107568207927 -1 0 0 0 0 7.000000000000000888 1 I I #
coedge $-1 -1 $-1 $257 $257 $304 $305 forward $239 $-1 #
coedge $-1 -1 $-1 $304 $304 $257 $283 reversed $273 $-1 #
edge $-1 -1 $-1 $306 1.570796326794897224 $307 4.712388980384688786 $282 $308 forward @7 unknown #
point $-1 -1 $-1 152.0000000000000284 27.22361107568207927 13.72361107568207927 #
DXID-attrib $-1 -1 $-1 $-1 $262 @10 ASM ENTITY @36 5c5b467e-b8b5-48e2-801f-f664839da62d #
face $309 -1 $-1 $310 $311 $9 $-1 $312 reversed single #
loop $-1 -1 $-1 $-1 $313 $262 #
cone-surface $-1 -1 $-1 0 20 2.449293598294706513e-15 1 0 0 0 -6.123233995736766282e-16 5 1 I I 0 1 5 forward I I I I #
coedge $-1 -1 $-1 $314 $314 $315 $316 reversed $263 $-1 #
coedge $-1 -1 $-1 $265 $265 $317 $318 reversed $246 $-1 #
coedge $-1 -1 $-1 $267 $267 $265 $292 reversed $295 $-1 #
edge $-1 -1 $-1 $297 1.57079632679489678 $296 4.712388980384689674 $291 $298 forward @7 unknown #
coedge $-1 -1 $-1 $317 $317 $266 $294 forward $319 $-1 #
edge $-1 -1 $-1 $296 -1.570796326794896558 $297 1.570796326794896558 $293 $320 forward @7 unknown #
loop $-1 -1 $-1 $-1 $267 $250 #
vertex $-1 -1 $-1 $268 $321 #
vertex $-1 -1 $-1 $268 $322 #
ellipse-curve $-1 -1 $-1 26.50000000000002132 -6.268810068998579522e-16 -6.268810068998574591e-16 -0.7071067811865477948 -0.500000000000000111 -0.4999999999999997224 9.545941546018388735 -6.750000000000005329 -6.75 1 I I #
point $-1 -1 $-1 13.00000000000002487 17.67766952966368521 36.76955262170046979 #
DXID-attrib $-1 -1 $-1 $-1 $277 @10 ASM ENTITY @36 f7cf1161-c7d2-4b4c-8523-4e317452f301 #
vertex $-1 -1 $-1 $277 $323 #
ellipse-curve $-1 -1 $-1 152.0000000000000284 27.22361107568207927 27.22361107568207927 -1 0 0 0 0 7.000000000000000888 1 I I #
point $-1 -1 $-1 145.0000000000000284 27.22361107568207927 20.22361107568207927 #
coedge $-1 -1 $-1 $282 $282 $281 $305 reversed $273 $-1 #
edge $-1 -1 $-1 $307 -1.57079632679489678 $306 1.570796326794896558 $304 $324 forward @7 unknown #
vertex $-1 -1 $-1 $283 $325 #
vertex $-1 -1 $-1 $283 $326 #
ellipse-curve $-1 -1 $-1 65.00000000000005684 27.22361107568209704 27.22361107568207927 -0.3826834323650896152 0.653281482438188621 0.6532814824381879548 32.59188309203680234 9.545941546018399393 9.545941546018390511 0.3826834323650896152 I I #
DXID-attrib $-1 -1 $-1 $-1 $286 @10 ASM ENTITY @36 34f88ede-fb1c-491b-8435-647530c23e27 #
face $327 -1 $-1 $328 $329 $9 $-1 $330 forward single #
loop $-1 -1 $-1 $-1 $331 $286 #
cone-surface $-1 -1 $-1 0 -1.224646799147353256e-15 20 1 0 0 0 -5 -3.061616997868383141e-16 1 I I 0 1 5 forward I I I I #
coedge $-1 -1 $-1 $332 $332 $333 $334 reversed $287 $-1 #
coedge $-1 -1 $-1 $289 $289 $335 $336 reversed $263 $-1 #
coedge $-1 -1 $-1 $337 $338 $289 $316 forward $339 $-1 #
edge $-1 -1 $-1 $340 -2.428369011590840287 $341 -0 $315 $342 forward @7 unknown #
coedge $-1 -1 $-1 $293 $293 $290 $318 forward $319 $-1 #
edge $-1 -1 $-1 $297 1.570796326794896558 $296 4.712388980384689674 $317 $320 forward @7 unknown #
loop $-1 -1 $-1 $343 $293 $344 #
ellipse-curve $-1 -1 $-1 26.50000000000002132 0 0 -0.7071067811865477948 -0.500000000000000111 -0.4999999999999997224 13.49999999999999289 -9.54594154601839584 -9.545941546018388735 0.7071067811865477948 I I #
point $-1 -1 $-1 26.50000000000002132 9.545941546018390511 -9.54594154601839584 #
point $-1 -1 $-1 26.50000000000002132 -9.545941546018390511 9.54594154601839584 #
point $-1 -1 $-1 152.0000000000000284 27.22361107568207927 20.22361107568207927 #
ellipse-curve $-1 -1 $-1 65.00000000000002842 27.22361107568208638 27.22361107568207217 0.9238795325112860723 0.2705980500730998939 0.2705980500730995608 5.591883092036803227 -9.545941546018379853 -9.545941546018372748 0.9238795325112877377 I I #
point $-1 -1 $-1 65.00000000000002842 36.76955262170047689 17.67766952966367455 #
point $-1 -1 $-1 65.00000000000002842 17.67766952966369942 36.76955262170046979 #
DXID-attrib $-1 -1 $-1 $-1 $310 @10 ASM ENTITY @36 7c23cc48-b781-49ec-ae76-1997d97bb330 #
face $345 -1 $-1 $346 $347 $9 $-1 $348 forward single #
loop $-1 -1 $-1 $349 $350 $310 #
plane-surface $-1 -1 $-1 0 0 0 1 0 0 0 0 -10 forward_v I I I I #
coedge $-1 -1 $-1 $351 $351 $352 $353 reversed $311 $-1 #
coedge $-1 -1 $-1 $313 $313 $354 $355 reversed $287 $-1 #
coedge $-1 -1 $-1 $356 $337 $313 $334 forward $339 $-1 #
edge $-1 -1 $-1 $357 -2.428369011599261107 $358 -0 $333 $359 forward @7 unknown #
coedge $-1 -1 $-1 $360 $361 $314 $336 forward $362 $-1 #
edge $363 -1 $-1 $341 0.0237522333143193598 $340 3.117840420275473701 $314 $364 forward @7 unknown #
coedge $-1 -1 $-1 $333 $315 $361 $365 forward $339 $-1 #
coedge $-1 -1 $-1 $315 $366 $360 $367 forward $339 $-1 #
loop $-1 -1 $-1 $-1 $315 $328 #
vertex $-1 -1 $-1 $316 $368 #
vertex $-1 -1 $-1 $316 $369 #
intcurve-curve $-1 -1 $-1 forward { surfintcur full nubs 3 open 12 
	-2.428369011590840287 3 -2.281211401468463684 2 -2.135228558367888496 2 -1.835967926974185538 2 -1.452299688087258733 2 
	-1.139044597537727466 2 -0.9343568056846538461 2 -0.7498462668643969264 2 -0.5438675066194342822 2 -0.3288739846744572204 2 
	-0.161545567164303322 2 -0 3 
	0 -4.998589644839828594 -19.88125000000000853 
	-2.091782557244919238e-16 -4.991586817044940005 -19.5864772631568087 
	0.01775697612148889951 -4.958577989706951072 -19.29422144431949704 
	0.0907514542643005212 -4.842869267587597726 -18.72294292989642273 
	0.1452158887110228669 -4.761354119952530439 -18.44759198417030177 
	0.3641929486358327361 -4.447010276593467815 -17.6415600872247289 
	0.5806461505346188767 -4.152400030981620027 -17.16253379699858783 
	1.171071936036866656 -3.348768125293830611 -16.2226467290870211 
	1.551655607073729515 -2.829608322997442471 -15.83620059844478689 
	2.132610180527502841 -1.884803167464423446 -15.34416744905511365 
	2.378150606677069678 -1.420769949436668789 -15.18051074487056695 
	2.62187690212841007 -0.6150121243981625518 -15.02739307373155242 
	2.675265660931139156 -0.2882472863817807651 -14.99681515727903047 
	2.664181889959289506 0.356369794645787108 -15.00336103098991458 
	2.610921461086427087 0.7267879745660015267 -15.03135416960169124 
	2.255331239516250363 1.681938650091156617 -15.26292815214213228 
	1.969608046447870242 2.170092175766698439 -15.46430052747983908 
	1.361893855588312441 3.093974822190874718 -16.03333870977562015 
	1.016401201381736286 3.559459593260738686 -16.42793939661066815 
	0.4932889610150341664 4.270996098848991451 -17.35072083843911628 
	0.306281788441059355 4.528309409652356621 -17.8112991689630249 
	0.05948754042848358736 4.886768879814567867 -18.81873727956686437 
	-3.820150695041168515e-16 4.985800620772665503 -19.342916667201834 
	0 4.998589644839838364 -19.88125000000000853 
	0.0008828905230141644196 
	
	cone 0 3.673940397442059178e-15 -20 1 0 0 0 5 9.184850993605147944e-16 1 I I 0 1 5 forward I I I I 
	torus 7.000000000000000888 0 0 -1 -0 -0 20.50000000000000355 -7.000000000000000888 0 0.6390739837149932434 0.7691452680337107495 forward_v F 1.570796326794895892 F 3.141592653589793116 I I 
	nullbs 
	nullbs 
	I I 
	0 
	0 
	0 
	} I I #
loop $-1 -1 $-1 $-1 $370 $344 #
face $371 -1 $-1 $372 $319 $9 $-1 $373 forward single #
DXID-attrib $-1 -1 $-1 $-1 $328 @10 ASM ENTITY @36 bfdafd67-f33a-4514-8e43-b947545b82f1 #
face $374 -1 $-1 $344 $375 $9 $-1 $376 reversed single #
loop $-1 -1 $-1 $339 $377 $328 #
torus-surface $-1 -1 $-1 7.000000000000000888 0 0 -1 -0 -0 20.50000000000000355 -7.000000000000000888 0 0.6390739837149932434 0.7691452680337107495 forward_v F 1.570796326794895892 F 3.141592653589793116 I I #
loop $-1 -1 $-1 $378 $379 $310 #
coedge $-1 -1 $-1 $350 $350 $380 $381 forward $329 $-1 #
coedge $-1 -1 $-1 $331 $331 $382 $383 reversed $311 $-1 #
coedge $-1 -1 $-1 $384 $356 $331 $353 forward $339 $-1 #
edge $-1 -1 $-1 $385 -2.428369011588977333 $386 -0 $352 $387 forward @7 unknown #
coedge $-1 -1 $-1 $361 $388 $332 $355 forward $362 $-1 #
edge $389 -1 $-1 $358 0.02375223331431942225 $357 3.117840420275473701 $332 $390 forward @7 unknown #
coedge $-1 -1 $-1 $352 $333 $388 $391 forward $339 $-1 #
vertex $-1 -1 $-1 $334 $392 #
vertex $-1 -1 $-1 $334 $393 #
intcurve-curve $-1 -1 $-1 forward { surfintcur full nubs 3 open 12 
	-2.428369011599261107 3 -2.281211401476093581 2 -2.135228558374733243 2 -1.83596792697942357 2 -1.452299688090495255 2 
	-1.13904459753936238 2 -0.934356805685210734 2 -0.7498462668645202722 2 -0.5438675066194703644 2 -0.3288739846744524464 2 
	-0.1615455671643025448 2 -0 3 
	0 19.88125000000000853 -4.998589644839829482 
	-2.091782557244919484e-16 19.5864772631568087 -4.991586817044940894 
	0.01775697612148872256 19.29422144431949704 -4.958577989706952849 
	0.09075145426430072937 18.72294292989641917 -4.842869267587597726 
	0.1452158887110237273 18.44759198417029822 -4.761354119952529551 
	0.3641929486358330692 17.6415600872247289 -4.447010276593468703 
	0.5806461505346165453 17.16253379699858783 -4.152400030981624468 
	1.171071936036819139 16.22264672908709571 -3.348768125293895448 
	1.551655607073674004 15.83620059844482952 -2.829608322997537506 
	2.132610180527525046 15.34416744905508878 -1.884803167464392804 
	2.378150606677083001 15.18051074487055985 -1.420769949436642143 
	2.621876902128425613 15.02739307373154176 -0.6150121243981280239 
	2.675265660931138711 14.99681515727903047 -0.2882472863817663322 
	2.66418188995930505 15.0033610309899057 0.356369794644881055 
	2.61092146108676193 15.0313541696014763 0.7267879745650952517 
	2.255331239516237929 15.26292815214214293 1.681938650091187037 
	1.969608046447844707 15.46430052747986572 2.170092175766731302 
	1.361893855588407032 16.03333870977553488 3.093974822190726393 
	1.016401201381807784 16.42793939661054381 3.55945959326064143 
	0.4932889610150276161 17.35072083843913049 4.270996098848999445 
	0.3062817884410579117 17.811299168963032 4.528309409652355733 
	0.05948754042848270612 18.81873727956687148 4.886768879814566091 
	-3.820150695041150766e-16 19.34291666720183756 4.985800620772661063 
	0 19.88125000000000853 4.998589644839833923 
	0.0008828905230235360464 
	
	cone 0 20 2.449293598294706513e-15 1 0 0 0 -6.123233995736766282e-16 5 1 I I 0 1 5 forward I I I I 
	torus 7.000000000000000888 0 0 -1 -0 -0 20.50000000000000355 -7.000000000000000888 0 0.6390739837149932434 0.7691452680337107495 forward_v F 1.570796326794895892 F 3.141592653589793116 I I 
	nullbs 
	nullbs 
	I I 
	0 
	0 
	0 
	} I I #
coedge $-1 -1 $-1 $394 $335 $338 $367 reversed $362 $-1 #
coedge $-1 -1 $-1 $335 $354 $337 $365 reversed $362 $-1 #
loop $-1 -1 $-1 $-1 $335 $310 #
DXID-attrib $-1 -1 $-1 $-1 $336 @10 ASM ENTITY @36 7bd2b782-72e6-4463-9f82-bc3cd3ee68f3 #
ellipse-curve $-1 -1 $-1 0 3.673940397442059178e-15 -20 1 0 0 0 5 9.184850993605147944e-16 1 I I #
edge $-1 -1 $-1 $341 -2.201982094220972908 $357 -1.123819471063165487 $361 $395 forward @7 tangent #
coedge $-1 -1 $-1 $338 $384 $396 $397 forward $339 $-1 #
edge $-1 -1 $-1 $398 2.510406886163716766 $340 3.588569509321524187 $360 $399 forward @7 tangent #
point $-1 -1 $-1 0 -4.998589644839828594 -19.88125000000000497 #
point $-1 -1 $-1 0 4.998589644839836588 -19.88125000000000497 #
coedge $-1 -1 $-1 $370 $370 $377 $400 reversed $343 $-1 #
DXID-attrib $-1 -1 $-1 $-1 $344 @10 ASM ENTITY @36 7da334c8-0cef-4324-a924-6a0ff4f273ba #
face $401 -1 $-1 $402 $403 $9 $-1 $404 reversed single #
cone-surface $-1 -1 $-1 0 0 0 1 0 0 0 0 -13.5 1 I I 0 1 13.5 forward I I I I #
DXID-attrib $-1 -1 $-1 $-1 $346 @10 ASM ENTITY @36 c226ed88-4b08-4220-a74f-2a3555898915 #
loop $-1 -1 $-1 $-1 $396 $346 #
cone-surface $-1 -1 $-1 0 -20 0 1 0 0 0 0 -5 1 I I 0 1 5 forward I I I I #
coedge $-1 -1 $-1 $377 $377 $370 $400 forward $347 $-1 #
loop $-1 -1 $-1 $405 $406 $310 #
coedge $-1 -1 $-1 $379 $379 $407 $408 forward $349 $-1 #
coedge $-1 -1 $-1 $380 $380 $350 $381 reversed $409 $-1 #
edge $-1 -1 $-1 $410 -1.570796326794896558 $410 4.712388980384689674 $350 $411 forward @7 unknown #
coedge $-1 -1 $-1 $388 $412 $351 $383 forward $362 $-1 #
edge $413 -1 $-1 $386 0.02375223331431948123 $385 3.117840420275473701 $351 $414 forward @7 unknown #
coedge $-1 -1 $-1 $366 $352 $412 $415 forward $339 $-1 #
vertex $-1 -1 $-1 $353 $416 #
vertex $-1 -1 $-1 $353 $417 #
intcurve-curve $-1 -1 $-1 forward { surfintcur full nubs 3 open 12 
	-2.428369011588977333 3 -2.281211401466758382 2 -2.135228558366349283 2 -1.835967926973015585 2 -1.452299688086521545 2 
	-1.139044597537411496 2 -0.9343568056846547343 2 -0.7498462668645021756 2 -0.5438675066194773589 2 -0.3288739846744512807 2 
	-0.1615455671643018509 2 -0 3 
	0 4.998589644839831259 19.88125000000000853 
	-2.091782557244889902e-16 4.99158681704494267 19.58647726315681226 
	0.01775697612148782051 4.958577989706954625 19.29422144431949349 
	0.09075145426429920281 4.84286926758760039 18.72294292989642628 
	0.1452158887110183427 4.761354119952542874 18.44759198417031598 
	0.3641929486358379542 4.447010276593467815 17.64156008722471469 
	0.5806461505346277585 4.152400030981614698 17.16253379699857007 
	1.171071936036908401 3.348768125293779985 16.22264672908695715 
	1.551655607073776144 2.829608322997368308 15.83620059844474781 
	2.132610180527416244 1.884803167464563334 15.34416744905518648 
	2.378150606677036816 1.420769949436793356 15.18051074487058827 
	2.621876902128421172 0.6150121243981351293 15.02739307373154354 
	2.6752656609311396 0.2882472863817670539 14.99681515727903047 
	2.664181889959284177 -0.3563697946460811505 15.00336103098991813 
	2.610921461086318729 -0.7267879745662944035 15.03135416960176229 
	2.255331239516209507 -1.681938650091266085 15.26292815214215892 
	1.969608046447789418 -2.170092175766813902 15.46430052747991724 
	1.36189385558840792 -3.093974822190721952 16.03333870977553488 
	1.016401201381809782 -3.559459593260640098 16.42793939661054381 
	0.4932889610150352766 -4.270996098848989675 17.35072083843911983 
	0.3062817884410591329 -4.528309409652353068 17.8112991689630249 
	0.05948754042848164447 -4.886768879814567867 18.81873727956687503 
	-3.820150695041134003e-16 -4.985800620772660174 19.34291666720184111 
	0 -4.998589644839833035 19.88125000000000853 
	0.0008828905230121027008 
	
	cone 0 -1.224646799147353256e-15 20 1 0 0 0 -5 -3.061616997868383141e-16 1 I I 0 1 5 forward I I I I 
	torus 7.000000000000000888 0 0 -1 -0 -0 20.50000000000000355 -7.000000000000000888 0 0.6390739837149932434 0.7691452680337107495 forward_v F 1.570796326794895892 F 3.141592653589793116 I I 
	nullbs 
	nullbs 
	I I 
	0 
	0 
	0 
	} I I #
coedge $-1 -1 $-1 $354 $382 $356 $391 reversed $362 $-1 #
DXID-attrib $-1 -1 $-1 $-1 $355 @10 ASM ENTITY @36 62a89129-ddd7-453e-b7dc-d5b321bfcffc #
ellipse-curve $-1 -1 $-1 0 20 2.449293598294706513e-15 1 0 0 0 -6.123233995736766282e-16 5 1 I I #
edge $-1 -1 $-1 $358 -0.6311857674260763496 $385 0.4469768557317310154 $388 $418 forward @7 tangent #
point $-1 -1 $-1 0 19.88125000000000497 -4.99858964483983037 #
point $-1 -1 $-1 0 19.88125000000000497 4.998589644839834811 #
coedge $-1 -1 $-1 $412 $360 $419 $420 forward $362 $-1 #
ellipse-curve $-1 -1 $-1 0 0 0 1 0 0 0 13.10101666615736349 15.76747799469107214 1 F -2.287030422554154896 F -1.038771142729983721 #
coedge $-1 -1 $-1 $419 $419 $366 $397 reversed $375 $-1 #
edge $-1 -1 $-1 $421 -2.428369011595506333 $398 -0 $366 $422 forward @7 unknown #
vertex $-1 -1 $-1 $367 $423 #
ellipse-curve $-1 -1 $-1 0 0 0 1 0 0 0 13.10101666615736349 15.76747799469107214 1 F 2.425358557830534778 F 3.673617837654706175 #
edge $-1 -1 $-1 $424 -3.141592653589793116 $424 3.141592653589793116 $370 $425 forward @7 tangent #
DXID-attrib $-1 -1 $-1 $-1 $372 @10 ASM ENTITY @36 214a3e11-2824-4bb4-966e-9b0d7d4ae9c6 #
face $426 -1 $-1 $427 $428 $9 $-1 $429 reversed single #
loop $-1 -1 $-1 $430 $407 $372 #
cone-surface $-1 -1 $-1 -70.96477999684067584 20 0 1 0 0 0 0 -3.300000000000000266 1 I I -0 1 3.300000000000000266 reversed I I I I #
loop $-1 -1 $-1 $431 $432 $310 #
coedge $-1 -1 $-1 $406 $406 $433 $434 forward $378 $-1 #
coedge $-1 -1 $-1 $407 $407 $379 $408 reversed $403 $-1 #
edge $-1 -1 $-1 $435 3.141592653589793116 $435 9.424777960769379348 $379 $436 forward @7 unknown #
loop $-1 -1 $-1 $437 $380 $438 #
vertex $-1 -1 $-1 $381 $439 #
ellipse-curve $-1 -1 $-1 0 0 -20 -1 -0 -0 0 0 -3.300000000000000266 1 I I #
coedge $-1 -1 $-1 $382 $394 $384 $415 reversed $362 $-1 #
DXID-attrib $-1 -1 $-1 $-1 $383 @10 ASM ENTITY @36 46ee3214-30ab-4f95-81ff-0151186a4919 #
ellipse-curve $-1 -1 $-1 0 -1.224646799147353256e-15 20 1 0 0 0 -5 -3.061616997868383141e-16 1 I I #
edge $-1 -1 $-1 $386 0.9396105593688200974 $421 2.017773182526627629 $412 $440 forward @7 tangent #
point $-1 -1 $-1 0 4.998589644839831259 19.88125000000000497 #
point $-1 -1 $-1 0 -4.998589644839833923 19.88125000000000497 #
ellipse-curve $-1 -1 $-1 0 0 0 1 0 0 0 13.10101666615736349 15.76747799469107214 1 F -0.7162340957592584489 F 0.5320251840649129482 #
coedge $-1 -1 $-1 $396 $396 $394 $420 reversed $375 $-1 #
edge $441 -1 $-1 $398 0.02375223331431954368 $421 3.117840420275473701 $419 $442 forward @7 unknown #
vertex $-1 -1 $-1 $420 $443 #
intcurve-curve $-1 -1 $-1 forward { surfintcur full nubs 3 open 12 
	-2.428369011595506333 3 -2.281211401472694078 2 -2.135228558371691676 2 -1.835967926977116305 2 -1.452299688089073726 2 
	-1.139044597538620085 2 -0.9343568056849433923 2 -0.7498462668644432227 2 -0.5438675066194254004 2 -0.328873984674433073 2 
	-0.1615455671642976876 2 -0 3 
	0 -19.88125000000000853 4.998589644839831259 
	-2.091782557244827779e-16 -19.58647726315681936 4.99158681704494267 
	0.017756976121487765 -19.29422144431950059 4.958577989706956402 
	0.09075145426430036855 -18.72294292989641917 4.84286926758760039 
	0.1452158887110230334 -18.44759198417029822 4.761354119952533992 
	0.3641929486358340684 -17.64156008722472535 4.447010276593470479 
	0.5806461505346212082 -17.16253379699858428 4.15240003098162358 
	1.171071936036869099 -16.2226467290870211 3.348768125293834608 
	1.551655607073728627 -15.83620059844478511 2.829608322997443803 
	2.132610180527508614 -15.34416744905510299 1.884803167464412788 
	2.378150606677072787 -15.18051074487056518 1.420769949436660351 
	2.621876902128408293 -15.0273930737315542 0.6150121243981687691 
	2.675265660931139156 -14.99681515727903047 0.2882472863817848729 
	2.664181889959298388 -15.00336103098991103 -0.3563697946452887289 
	2.610921461086610496 -15.031354169601574 -0.7267879745655034807 
	2.25533123951624237 -15.26292815214214116 -1.681938650091173937 
	1.969608046447853811 -15.46430052747985506 -2.170092175766716647 
	1.361893855588383495 -16.0333387097755562 -3.093974822190759699 
	1.016401201381791131 -16.42793939661057578 -3.559459593260664079 
	0.4932889610150331117 -17.35072083843912338 -4.270996098848992339 
	0.3062817884410587443 -17.8112991689630249 -4.528309409652353068 
	0.05948754042847495538 -18.8187372795668999 -4.886768879814576749 
	-3.820150695041035395e-16 -19.34291666720185177 -4.985800620772653957 
	0 -19.88125000000000853 -4.998589644839826818 
	0.0008828905230158087206 
	
	cone 0 -20 0 1 0 0 0 0 -5 1 I I 0 1 5 forward I I I I 
	torus 7.000000000000000888 0 0 -1 -0 -0 20.50000000000000355 -7.000000000000000888 0 0.6390739837149932434 0.7691452680337107495 forward_v F 1.570796326794895892 F 3.141592653589793116 I I 
	nullbs 
	nullbs 
	I I 
	0 
	0 
	0 
	} I I #
point $-1 -1 $-1 0 -19.88125000000000497 -4.998589644839832147 #
vertex $-1 -1 $-1 $400 $444 #
ellipse-curve $-1 -1 $-1 7.000000000000001776 0 0 -1 -0 -0 0 8.627498780152409452 10.38346111845509512 1 I I #
DXID-attrib $-1 -1 $-1 $-1 $402 @10 ASM ENTITY @36 cc071735-72ed-437d-8250-4b40f99432be #
face $445 -1 $-1 $438 $446 $9 $-1 $447 reversed single #
loop $-1 -1 $-1 $448 $433 $402 #
cone-surface $-1 -1 $-1 -70.96477999684067584 0 20 1 0 0 0 0 -3.300000000000000266 1 I I -0 1 3.300000000000000266 reversed I I I I #
loop $-1 -1 $-1 $-1 $449 $372 #
loop $-1 -1 $-1 $362 $450 $310 #
coedge $-1 -1 $-1 $432 $432 $451 $452 forward $405 $-1 #
coedge $-1 -1 $-1 $433 $433 $406 $434 reversed $428 $-1 #
edge $-1 -1 $-1 $453 1.570796326794896558 $453 7.85398163397448279 $406 $454 forward @7 unknown #
vertex $-1 -1 $-1 $408 $455 #
ellipse-curve $-1 -1 $-1 0 20 0 -1 -0 -0 0 0 -3.300000000000000266 1 I I #
loop $-1 -1 $-1 $-1 $456 $438 #
face $457 -1 $-1 $458 $409 $9 $-1 $459 reversed single #
point $-1 -1 $-1 0 3.300000000000003375 -20 #
ellipse-curve $-1 -1 $-1 0 0 0 1 0 0 0 13.10101666615736349 15.76747799469107214 1 F 0.8545622310356381091 F 2.102821510859809617 #
DXID-attrib $-1 -1 $-1 $-1 $420 @10 ASM ENTITY @36 f88eed71-519a-41a5-b01a-86a8143d79a0 #
ellipse-curve $-1 -1 $-1 0 -20 0 1 0 0 0 0 -5 1 I I #
point $-1 -1 $-1 0 -19.88125000000000497 4.998589644839832147 #
point $-1 -1 $-1 7.000000000000001776 -8.627498780152411229 -10.38346111845509512 #
DXID-attrib $-1 -1 $-1 $-1 $427 @10 ASM ENTITY @36 e56485c2-f741-49fd-8aed-088f26abed95 #
loop $-1 -1 $-1 $460 $461 $427 #
cone-surface $-1 -1 $-1 -70.96477999684067584 -20 0 1 0 0 0 0 -3.300000000000000266 1 I I -0 1 3.300000000000000266 reversed I I I I #
loop $-1 -1 $-1 $-1 $462 $402 #
coedge $-1 -1 $-1 $449 $449 $463 $464 reversed $430 $-1 #
coedge $-1 -1 $-1 $450 $450 $461 $465 forward $431 $-1 #
coedge $-1 -1 $-1 $451 $451 $432 $452 reversed $466 $-1 #
edge $467 -1 $-1 $468 0 $468 6.283185307179586232 $432 $469 forward @7 unknown #
vertex $-1 -1 $-1 $434 $470 #
ellipse-curve $-1 -1 $-1 0 0 20 -1 -0 -0 0 0 -3.300000000000000266 1 I I #
point $-1 -1 $-1 0 20 3.300000000000002487 #
coedge $-1 -1 $-1 $456 $456 $471 $472 reversed $437 $-1 #
DXID-attrib $-1 -1 $-1 $-1 $438 @10 ASM ENTITY @36 86e191eb-9d3b-4d18-827a-896b233af91b #
face $473 -1 $-1 $474 $475 $9 $-1 $476 forward single #
cone-surface $-1 -1 $-1 -70.96477999684067584 0 -20 1 0 0 0 0 -3.300000000000000266 1 I I -0 1 3.300000000000000266 reversed I I I I #
loop $-1 -1 $-1 $-1 $477 $427 #
coedge $-1 -1 $-1 $461 $461 $450 $465 reversed $446 $-1 #
coedge $-1 -1 $-1 $462 $462 $478 $479 reversed $448 $-1 #
coedge $-1 -1 $-1 $463 $463 $449 $464 forward $480 $-1 #
edge $-1 -1 $-1 $481 -3.141592653589793116 $481 3.141592653589793116 $463 $482 forward @7 unknown #
edge $-1 -1 $-1 $483 0 $483 6.283185307179586232 $450 $484 forward @7 unknown #
loop $-1 -1 $-1 $-1 $451 $458 #
DXID-attrib $-1 -1 $-1 $-1 $452 @10 ASM ENTITY @36 934efbb6-3ae2-45d7-9f17-a16325bca10f #
vertex $-1 -1 $-1 $452 $485 #
ellipse-curve $-1 -1 $-1 0 0 0 1 0 0 0 24.99999999999999645 0 1 I I #
point $-1 -1 $-1 0 -3.300000000000001155 20 #
coedge $-1 -1 $-1 $471 $471 $456 $472 forward $486 $-1 #
edge $-1 -1 $-1 $487 -3.141592653589793116 $487 3.141592653589793116 $471 $488 forward @7 unknown #
DXID-attrib $-1 -1 $-1 $-1 $458 @10 ASM ENTITY @36 f64a69e3-25b6-49f3-9cdd-e8c2eab15bf8 #
face $489 -1 $-1 $-1 $480 $9 $-1 $490 reversed single #
loop $-1 -1 $-1 $466 $491 $458 #
cone-surface $-1 -1 $-1 0 0 0 -1 0 0 0 24.99999999999999645 0 1 I I 0 1 24.99999999999999645 forward I I I I #
coedge $-1 -1 $-1 $477 $477 $492 $493 reversed $460 $-1 #
coedge $-1 -1 $-1 $478 $478 $462 $479 forward $494 $-1 #
edge $-1 -1 $-1 $495 -3.141592653589793116 $495 3.141592653589793116 $478 $496 forward @7 unknown #
loop $-1 -1 $-1 $494 $463 $474 #
vertex $-1 -1 $-1 $464 $497 #
ellipse-curve $-1 -1 $-1 -5.999999999999996447 20 0 1 0 0 0 0 -3.300000000000000266 1 I I #
vertex $-1 -1 $-1 $465 $498 #
ellipse-curve $-1 -1 $-1 0 -20 0 -1 -0 -0 0 0 -3.300000000000000266 1 I I #
point $-1 -1 $-1 0 24.99999999999999645 0 #
loop $-1 -1 $-1 $499 $471 $474 #
vertex $-1 -1 $-1 $472 $500 #
ellipse-curve $-1 -1 $-1 -5.999999999999996447 0 -20 1 0 0 0 0 -3.300000000000000266 1 I I #
DXID-attrib $-1 -1 $-1 $-1 $474 @10 ASM ENTITY @36 36f466c2-4f57-4a6b-ad58-0600cd0b4478 #
plane-surface $-1 -1 $-1 -6.000000000000000888 0 0 1 0 0 0 0 -10 forward_v I I I I #
coedge $-1 -1 $-1 $491 $491 $501 $502 reversed $475 $-1 #
coedge $-1 -1 $-1 $492 $492 $477 $493 forward $503 $-1 #
edge $-1 -1 $-1 $504 -3.141592653589793116 $504 3.141592653589793116 $492 $505 forward @7 unknown #
loop $-1 -1 $-1 $503 $478 $474 #
vertex $-1 -1 $-1 $479 $506 #
ellipse-curve $-1 -1 $-1 -5.999999999999996447 0 20 1 0 0 0 0 -3.300000000000000266 1 I I #
point $-1 -1 $-1 -5.999999999999996447 20 3.300000000000000266 #
point $-1 -1 $-1 0 -20 -3.300000000000000266 #
loop $-1 -1 $-1 $-1 $501 $474 #
point $-1 -1 $-1 -5.999999999999996447 -4.041334437186266003e-16 -16.69999999999999929 #
coedge $-1 -1 $-1 $501 $501 $491 $502 forward $499 $-1 #
edge $507 -1 $-1 $508 -6.283185307179586232 $508 -0 $491 $509 forward @7 unknown #
loop $-1 -1 $-1 $486 $492 $474 #
vertex $-1 -1 $-1 $493 $510 #
ellipse-curve $-1 -1 $-1 -5.999999999999996447 -20 0 1 0 0 0 0 -3.300000000000000266 1 I I #
point $-1 -1 $-1 -5.999999999999996447 -4.041334437186266003e-16 23.30000000000000071 #
DXID-attrib $-1 -1 $-1 $-1 $502 @10 ASM ENTITY @36 48c67a41-3e41-46bc-b923-5832b9d21b5f #
vertex $-1 -1 $-1 $502 $511 #
ellipse-curve $-1 -1 $-1 -6.000000000000000888 0 0 -1 -0 -0 0 24.99999999999999645 0 1 I I #
point $-1 -1 $-1 -5.999999999999996447 -20 3.300000000000000266 #
point $-1 -1 $-1 -6.000000000000000888 24.99999999999999645 0 #
End-of-ACIS-data 